<?xml version="1.0" encoding="UTF-8" standalone="no"?>
<!-- Created with Inkscape (http://www.inkscape.org/) -->

<svg
   version="1.1"
   id="svg2"
   width="5333.3335"
   height="5333.3335"
   viewBox="0 0 5333.3335 5333.3335"
   sodipodi:docname="parrot.eps"
   xmlns:inkscape="http://www.inkscape.org/namespaces/inkscape"
   xmlns:sodipodi="http://sodipodi.sourceforge.net/DTD/sodipodi-0.dtd"
   xmlns="http://www.w3.org/2000/svg"
   xmlns:svg="http://www.w3.org/2000/svg">
  <defs
     id="defs6" />
  <sodipodi:namedview
     id="namedview4"
     pagecolor="#ffffff"
     bordercolor="#000000"
     borderopacity="0.25"
     inkscape:showpageshadow="2"
     inkscape:pageopacity="0.0"
     inkscape:pagecheckerboard="0"
     inkscape:deskcolor="#d1d1d1" />
  <g
     id="g8"
     inkscape:groupmode="layer"
     inkscape:label="ink_ext_XXXXXX"
     transform="matrix(1.3333333,0,0,-1.3333333,0,5333.3333)">
    <g
       id="g10"
       transform="scale(0.1)">
      <path
         d="M 40000,0 H 0 V 40000 H 40000 V 0"
         style="fill:#ffffff;fill-opacity:0;fill-rule:nonzero;stroke:none"
         id="path12" />
      <path
         d="m 20944.7,34399.9 h -0.9 c -0.2,0 -0.3,0 -0.5,0 l -3.2,0.2 c -14.5,-3 -51,-32.4 -79.7,-104 -32.3,-77.2 -54.8,-190.6 -56.4,-317.2 -0.1,-4.7 -0.2,-10.1 -0.1,-16 -0.2,-122.3 19.8,-232.5 49.8,-307 26.4,-69.1 60.6,-97.3 74.6,-100.3 1.1,0.1 2.1,0.1 2.6,0.1 0.7,0 1.1,0 1.3,0 0.3,0 0.3,0 0.4,0 9.6,-3.8 51.8,23.6 84,103.8 32.2,77.1 54.8,190.6 56.5,316.4 v 16.8 c 0,122.3 -19.7,232.6 -49.8,307 -29.7,77.7 -69.3,103.7 -78.6,100.2"
         style="fill:#ffffff;fill-opacity:1;fill-rule:nonzero;stroke:none"
         id="path14" />
      <path
         d="m 28748.4,18910.7 c -10.1,6.7 -19.8,13.3 -29.5,19.9 0.1,-2.7 0.1,-5.4 0.1,-8.2 4,-240 -154.6,-527.3 -612.3,-714.9 -156.1,-65.7 -310.6,-94 -457.3,-94 -264.5,3 -499.8,89.6 -695,201.4 54.1,-104.9 114.6,-220.5 181.2,-342 237.1,-434 550.4,-940.2 878.6,-1264.4 218.8,-217.7 439.5,-345 628.7,-342.9 26.2,0.1 52,2.2 77.7,6.7 134.2,21.3 289.6,147.9 436.8,365.2 147.5,215.3 285.3,510.4 406.8,835.2 138.5,369.3 256.3,776.5 351.6,1152.6 -124.9,-64 -256,-92.9 -382.9,-92.1 -302.5,1.3 -579.2,142.7 -784.5,277.5"
         style="fill:#28469b;fill-opacity:1;fill-rule:nonzero;stroke:none"
         id="path16" />
      <path
         d="m 25402.5,35618.2 c 0,0 452.2,218.8 716.8,80.6 265.3,-136 516.4,-414.9 554.2,-886.2 l -232.1,-20 c -37.2,398.7 -221.2,586.5 -430.4,700 -209.7,111 -450.3,127.7 -555.3,127.2 -34.6,0 -51.7,-1.4 -53.2,-1.6 -0.1,0 -0.1,0 -0.1,0 0,0 0,0 0.1,0 z m -1956.9,-173.9 c -382.7,-888.9 -518.3,-1978.5 -517.7,-2800.2 -0.2,-185.7 6.9,-357.8 19,-510.4 l 18.7,-231.9 -196.8,124 c -168.6,106 -345.5,154.4 -520.3,154.6 -559.1,0.7 -1120.7,-509.5 -1164.4,-1371.9 l -0.3,-2.3 -0.1,-0.6 h 0.3 c -1.5,-83.7 71.8,-686 573.9,-1274.5 411.6,-484.4 1432.2,-1112.3 2638.4,-1337.2 -681.6,391.9 -1427.7,1105.3 -1686.3,1629.7 -340.3,689 -403.3,1290.1 -404.3,1298.7 l -8.8,82.9 75.3,34.8 -0.2,0.2 c 3.3,2.3 8.8,6.2 15.8,11.7 13.7,10.9 33.1,27.2 56.2,47.3 46.2,40.4 108.1,96.3 182.5,161.8 148.6,131.3 347.3,301.3 580.4,469.9 466.3,336.1 1070.3,673.5 1708.2,675.2 427.7,1.3 867.5,-160.1 1253.9,-566.4 61.3,-64.4 699.5,-946.1 877,-1229.3 164.3,-262.9 307.4,-503.4 397.7,-657.2 857.5,1496.6 1176.9,2672.3 1176.8,3588.7 -1.8,1257.9 -593.3,2040.4 -1268.6,2544.1 -675,501.3 -1435.1,707.8 -1735.1,772.8 -59.5,13 -99.3,20.3 -118.3,23.5 -960.2,-77.8 -1568.7,-750.1 -1952.9,-1638"
         style="fill:#f3f079;fill-opacity:1;fill-rule:nonzero;stroke:none"
         id="path18" />
      <path
         d="m 29514.8,21004.7 c -60.1,-12 -119.8,-17.5 -179.1,-17.5 -419.5,2.1 -798.5,269.3 -1078.3,526 -134.4,124.3 -245.7,247.9 -325.4,343.1 -42.5,-251.4 -166.9,-661.7 -535,-951.4 -87.2,-68.2 -183.2,-101.8 -276.6,-101.5 -282.8,7.3 -491.7,258.7 -650,487.7 -26.6,39.5 -51.4,78.8 -74.4,116.9 -20.8,-223.2 -97.4,-391.3 -211.3,-505.9 -134.4,-135.4 -312.8,-189.8 -484.1,-189.8 h -1.2 c -180.9,1.5 -358,57.5 -493.5,151.6 134.3,-889.2 1490.1,-2053.5 1500.2,-2070.1 45.7,-43.5 98.7,-90.7 159.9,-138.3 203.1,-158.5 481.9,-309.9 783.4,-309 117.2,0.1 239.2,22.1 366.8,75.6 406.3,177.4 577.8,527.2 581.7,668.2 1.5,130.1 -72.3,249 -87.8,269.8 -2,2.9 -2.1,2.9 -2.1,2.9 0,0 276.4,-197 368.9,-258.1 185,-123.3 430.3,-240.1 656,-238.8 161.4,1.4 313.2,51.9 462.5,208 l 3.8,-3.5 c 35.6,155.2 66.9,300.1 93.2,428.3 64.1,312.4 99.7,525.5 104.9,557.8 14.5,200.3 21.7,396.9 21.7,590 0.2,484.5 -44.1,947.1 -122.6,1386.9 -36,-243.3 -97.3,-503.2 -203.3,-704.3 -84,-157.8 -204.7,-289.4 -378.3,-324.6"
         style="fill:#fbc41d;fill-opacity:1;fill-rule:nonzero;stroke:none"
         id="path20" />
      <path
         d="m 24463.2,28161.9 c -676.3,357.9 -1423.3,1188.1 -1696.5,1739.1 -169.3,342.1 -265.6,661.3 -316.5,868.9 -22.9,93.8 -42.1,185.2 -56.5,271.5 -1.9,11.1 -3.5,21.3 -4.9,30.6 l -4.8,32.1 24.7,21 19.6,16.5 31.1,26.5 57.5,51.4 c 404,362.7 1350.5,1211.9 2288.2,1211.9 h 10.3 c 307.8,-1.1 580.6,-86.3 833.8,-260.5 l -42.4,-105.3 c -54.5,8.9 -109.1,13.4 -162.9,13.4 -302.1,-0.8 -596.3,-130.5 -876.6,-385.7 -192.3,-175.6 -308.3,-348.8 -329.6,-381.6 -343.3,-651.5 -411.9,-1190.1 -434.1,-1538.8 -40.9,-647.7 341.6,-1078 594.8,-1362.7 53.6,-60.3 99.9,-112.4 137.9,-161 l -73.1,-87.3 v 0"
         style="fill:#331417;fill-opacity:1;fill-rule:nonzero;stroke:none"
         id="path22" />
      <path
         d="m 22830.9,35562.3 c 0,0 0.3,9.4 0.2,28.8 0.6,105.9 -12.6,490.6 -164.1,843.9 -154.7,354.2 -425.5,669.4 -975.8,696.9 -26.5,1.2 -52.5,1.8 -78.2,1.8 -695.3,-2.5 -1062.3,-427.6 -1278.7,-964.5 -212.3,-535.3 -247.9,-1168.7 -247.5,-1512.8 0,-159 7.2,-254.5 7.2,-254.8 0,0 -242.3,993 77.9,1831.8 218.2,571.5 661.4,1077.3 1441.1,1075 28.4,0.1 57.2,-0.7 86.4,-2.1 624.1,-26 965,-412.3 1128.3,-802.6 166.5,-391.2 3.2,-941.4 3.2,-941.4 z m -1077.6,-2632.7 c -1089.9,0 -1887,-402.8 -1887,-402.8 5,5.2 108.7,107.3 309.9,228.4 -11.3,118.7 -34.6,408 -34.6,771.9 0.2,496.7 42.5,1130.1 223.5,1660.1 177.7,526.9 512.6,970.2 1091,1012.7 17.3,1.2 34.3,1.9 51.3,1.9 285.3,2.4 476.7,-192.3 573.3,-447.2 100.7,-256.6 133.2,-586.9 133.5,-930.7 -0.2,-687 -134.6,-1427.2 -183.1,-1672.7 37.4,-2.8 304.9,-270 304.9,-270 -128.5,12.9 -466.3,48.4 -582.7,48.4 z m 2154.7,3671.1 c -198.2,581 -1027,989.5 -1906.5,987 -598.5,0.2 -1208.8,-185.8 -1642.7,-606.1 -807.3,-777.5 -1179,-2116.9 -1177.8,-3229 -0.3,-495.6 73.5,-945.5 208,-1275.1 98.6,-243.1 311.4,-507.6 558.6,-713.2 238.2,-199.7 509.6,-342.5 726.3,-374.3 56.1,29.3 110.4,65.1 155.2,116 245.4,278.6 478.1,921.2 478.1,921.2 0.4,-21.5 0.6,-42.8 0.6,-63.7 0.1,-156.3 -11.9,-295.9 -34.5,-420.4 258.4,298.4 608.6,469.6 975.2,470.1 151.8,0 305.4,-29.8 453.4,-91.3 -4.5,102.1 -7,209.9 -7,322.2 0.4,846.7 136.1,1958.6 536.7,2892.2 170,398.3 392.9,766.8 676.4,1064.4"
         style="fill:#deb88b;fill-opacity:1;fill-rule:nonzero;stroke:none"
         id="path24" />
      <path
         d="m 21152,34948.2 c -28.4,0 -57.8,-15.4 -83.4,-50 -25.2,-34.2 -42.9,-85.9 -42.8,-144.1 -0.1,-58.2 17.6,-109.7 42.8,-144 25.6,-34.6 55,-50 83.4,-50 28.4,0 57.7,15.4 83.4,50 25.2,34.3 42.8,85.8 42.7,144 0.1,58.2 -17.5,109.9 -42.7,144.1 -25.7,34.6 -55,50 -83.4,50"
         style="fill:#ffffff;fill-opacity:1;fill-rule:nonzero;stroke:none"
         id="path26" />
      <path
         d="m 21918.1,35690.5 c -91.6,221.6 -209.9,334.4 -410.7,336.7 -12.2,0 -25,-0.7 -38.4,-1.5 -482.8,-36.3 -764.7,-394.3 -938.7,-895.1 -170.4,-497.5 -214.4,-1117.4 -214,-1603.5 0,-234.1 9.9,-437.3 19.7,-581.7 2.5,-36.9 5.1,-69.6 7.4,-98.2 124.2,62.2 272.9,124.4 445.4,176.9 -82.5,63.3 -150,156.2 -201.4,265.4 -91.2,193.7 -141.6,447.8 -141.8,729.6 0,59.9 2.3,120.8 7,182.6 24.5,315.4 106.9,597.4 226.7,807.4 119.3,207.4 280.2,356.1 479.7,358.7 8.9,0 18.6,-0.3 28.1,-1.1 185.4,-15.9 323,-160 413.3,-351.3 91,-193.7 141.4,-447.8 141.6,-729.6 -0.1,-59.9 -2.3,-120.7 -7.1,-182.4 l -87.1,6.5 87.1,-6.7 c -24.4,-315.3 -107,-597.4 -226.7,-807.3 -31.6,-54.8 -66.2,-105.4 -103.4,-150.5 110.3,10.9 226.2,17.1 348.5,17.1 33,0 67.5,-1.7 101.3,-2.5 17.4,86.3 51.9,266.2 86.6,498.3 49.3,329 98.3,760.4 98.2,1165.6 0.5,332 -33.8,646.7 -121.3,866.6"
         style="fill:#ffffff;fill-opacity:1;fill-rule:nonzero;stroke:none"
         id="path28" />
      <path
         d="m 26237.2,14621.9 c 0.8,-62.3 3.5,-237.7 16.5,-453.6 15.9,-270.1 48.6,-603.3 109.3,-839.7 36.2,-158.1 102.5,-268.5 123.6,-273.4 2.1,-1.7 2.7,-1.7 2.8,-1.6 0.2,0.1 0.2,0.1 0.3,0 0,0.1 0.1,0 1,0 84.1,11 191.6,95.9 294.5,256.5 102.9,158.7 198.7,380.6 281.3,625.9 166.1,491.1 282.6,1075.3 348.3,1462.2 44,258.1 65.3,427.1 65.5,427.6 l 13.8,-1.8 c 27.6,274.6 49.9,504.3 66.4,679.4 -125.5,-158.3 -287.7,-365.4 -457.1,-589 -355.3,-467.9 -742.4,-1015 -866.2,-1292.5"
         style="fill:#cc2028;fill-opacity:1;fill-rule:nonzero;stroke:none"
         id="path30" />
      <path
         d="m 22287.7,11312.6 c -142.1,0.9 -289.5,-59.6 -349.6,-89.9 -2.3,-1.2 -4.4,-2.2 -6.3,-3.1 -83.8,-133.6 -119.1,-292.6 -119.3,-468 -2.3,-470.2 291.4,-1265.9 445.9,-1539.4 256.9,501 394.8,1288.2 393.5,1651.2 1.2,187 -45.1,311.5 -101.5,357.3 -79.1,68.5 -167.2,91.4 -262.7,91.9"
         style="fill:#38363c;fill-opacity:1;fill-rule:nonzero;stroke:none"
         id="path32" />
      <path
         d="m 26243.2,12031.1 c -69,-39 -106.8,-63.6 -106.9,-63.8 l -116,-74.8 -54.4,126.8 c -164.1,383.1 -217,675.1 -234,825.7 -236.2,-72.9 -577.1,-158.3 -885.3,-159.4 -63.3,0.2 -125.8,4 -186.3,12.5 -6.9,-10.6 -14.5,-21.5 -22.9,-32.6 12.4,-79.8 21.5,-169.4 21.7,-261.1 -0.8,-153.7 -23.5,-318 -124.9,-449.8 l -31.3,-40 -50.7,-4.2 c -277.1,-23.6 -451.3,-113.8 -560.1,-231.3 -108.4,-117.7 -157.7,-271.2 -158,-441.9 -2.2,-251.3 114.6,-529.7 286.3,-719.1 -18.8,115.1 -29.3,224.8 -29.7,325.9 1.1,216.7 42.7,407.9 181,532.5 128.3,112.9 281.5,150.2 416.1,149.7 270,-2 486.9,-133 495.8,-136.6 l 22.5,-13.1 14.9,-21.9 c 127.7,-186.7 174.9,-404.7 174.9,-622.5 -0.7,-115.5 -14,-232 -35.7,-346.9 149.3,46.9 254.2,108.4 337.8,187.2 116.5,110 181.1,274.3 289.2,488 253,500.2 -371.8,1141.3 -371.8,1141.3 4.8,-3.3 157.7,-102.5 314.7,-268.7 155.3,-166.2 323.1,-402.3 325.1,-693 0,-40.4 -3.8,-81.9 -11.3,-123.7 l 4.5,0.8 c 0.1,0 0,-0.1 1,-3.8 0.8,-3.8 2.5,-10 4.8,-18.3 4.5,-16.6 12.1,-41.4 23.9,-71.3 23.5,-59.9 63.1,-140.6 125.5,-220.2 126.6,-158.4 333.4,-316.6 726.3,-318.5 42.6,0 87.2,2 134.2,6.1 -101.2,278.8 -238.1,535.3 -379.3,623.3 -92.5,59.4 -136.8,166.1 -134.6,261.8 3.8,188.3 117.3,372.4 270.2,528.5 155.2,153.1 357,277.4 579,279.6 124.4,0.9 253.9,-45.8 356.2,-146.8 103,-100.5 180.4,-247.6 232.2,-447.8 l 1.5,-6 0.9,-5.4 c 0.6,-4.7 18.3,-121.3 18.4,-312.5 -0.1,-110.7 -6.4,-247.3 -25.2,-401 69.9,112.3 103,244.1 104.3,393 0.9,281.5 -125.8,612.3 -343.4,891.2 -132.5,168.9 -310.8,228.4 -526.4,229.9 -393.6,2.3 -869.3,-230 -1074.7,-347.8"
         style="fill:#38363c;fill-opacity:1;fill-rule:nonzero;stroke:none"
         id="path34" />
      <path
         d="m 23426.1,11274.5 c -23.4,0 -44.9,1.4 -63.3,4.2 l -45.9,6.9 -3.5,46.3 c -14.3,190 -84.2,357.8 -201.6,485 -141,153.2 -354.9,250.5 -619,281.6 l -30.6,3.5 -14.3,27.4 c -37.4,72.3 -57.7,177 -57.1,294.6 0,7.6 0.6,15.6 0.9,23.7 l 0.5,12.1 3.1,95.4 83.4,-46.4 c 98.6,-54.7 198.2,-83.6 296.2,-86 h 8 c 162.3,0 312.2,110.2 400.4,294.7 77.3,156.3 146.9,377.4 207,658 l 114.4,-3.2 2.1,-13.4 4.7,-30.5 c 35.4,-217.4 80.9,-386.2 139.7,-515.8 76,-165.6 166.7,-254.9 285.2,-280.6 74.5,-14.9 146.6,-22.5 213.5,-22.5 0.3,0 0.6,0 1,0 93.6,0 175.6,15.6 248.8,46.1 l 74.5,31 6,-80.4 c 2.6,-34 4.5,-68 4.5,-101.9 0.6,-117.1 -19.6,-221.7 -57.3,-294.2 l -14,-27.6 -30.8,-3.4 c -263.9,-31.3 -477.9,-128.5 -618.9,-281.6 -112.9,-122.2 -181.8,-282.9 -199.3,-464.9 l -4.5,-46.5 -46.5,-5.7 c -32.8,-3.9 -62.1,-5.9 -87.3,-5.9 v 0"
         style="fill:#4e141a;fill-opacity:1;fill-rule:nonzero;stroke:none"
         id="path36" />
      <path
         d="m 22449.2,12423.7 c -0.7,-105.1 16.6,-202.2 50.4,-267.4 290.6,-34 509.6,-141.9 655,-299.9 135.9,-147.2 202.5,-331.6 216.8,-520.2 13.2,-1.8 30.8,-3.5 54.7,-3.5 21.7,0 48.7,1.7 80.3,5.5 17.5,180.9 83.7,357.1 214.5,498.8 145.4,157.9 364.4,265.7 655,299.9 33.8,65.2 51.1,162.4 50.4,267.5 0.1,32.3 -1.8,64.9 -4.2,97.4 -74.8,-31.2 -165.1,-51.4 -272.2,-50.6 -68.2,0 -143.2,7.4 -225.9,23.8 -161.6,35.1 -258.2,166.3 -325.9,313.6 -68.2,150.7 -112.3,335.2 -144,530.3 -2.5,14.8 -4.7,29.6 -6.9,44.4 -53.3,-249.3 -121.6,-489.9 -211.3,-670.9 -107.6,-224.5 -287.9,-327.8 -453,-327.7 -3.1,0 -6.4,0 -9.4,0 -127,2.9 -238.1,46.1 -323.1,93.2 -0.4,-11.3 -1.2,-22.8 -1.2,-34.2"
         style="fill:#4e141a;fill-opacity:1;fill-rule:nonzero;stroke:none"
         id="path38" />
      <path
         d="m 22774.8,12539.3 h -3.6 c -107.3,0 -216.5,59.3 -258.6,84.9 -25.8,15.4 -48.5,31.2 -67.1,44.8 l -29.8,22 7.1,36.1 2.7,14 c 1.5,8.3 3,16.7 4.8,24.3 7,34.5 14.3,64.7 20.5,89.1 l 5.4,21.4 18.4,12.4 c 98.1,66.3 190.2,148.6 273.9,244.8 l 13.3,15.2 1,20.3 c 23.8,454.1 57.3,866.8 99.1,1226.2 6.7,56 12.8,104.7 18.5,148.8 l 9.4,71.3 67.9,-24.1 c 151.3,-53.4 291.7,-82.6 416.6,-86.3 l 62.3,-2 -6.1,-61.8 c -12.7,-132.4 -35.2,-338.9 -70.2,-571.6 -42.3,-286.6 -135.2,-810.7 -280.7,-1098.8 -98,-184.6 -192.1,-225.7 -303.4,-230.9 l -1.4,-0.1 v 0"
         style="fill:#4e141a;fill-opacity:1;fill-rule:nonzero;stroke:none"
         id="path40" />
      <path
         d="m 23027.7,12796.6 c 124.1,245.9 218.5,698.8 275,1081.3 35.1,233.2 57.6,440.8 70,568.4 -137.4,4 -282.6,36 -434.5,89.6 -5.8,-43.7 -11.9,-92 -18.5,-147.8 -31.1,-266.8 -69.8,-671.8 -98.7,-1222.5 l -2.1,-40.3 -26.4,-30.3 c -90.9,-104.6 -186.9,-188.5 -285.3,-255 -6.1,-23.6 -13.1,-53.1 -20,-86.5 -2.4,-11.7 -4.8,-25 -7.2,-37.6 17.3,-12.8 38.7,-27.4 63,-41.9 67.1,-41 155.7,-77.2 230.5,-76.4 85,4 163.2,27.6 254.2,199"
         style="fill:#4e141a;fill-opacity:1;fill-rule:nonzero;stroke:none"
         id="path42" />
      <path
         d="m 26100,12150.2 -24.4,63.1 c -68.3,177.1 -118.5,349.8 -149.2,512.8 -14.7,78.5 -21.6,137.9 -24.7,174.1 l -1.1,12.8 -2.9,43.6 40.8,19.1 c 26.3,9.6 45.9,16.9 57.3,21.3 5.3,2.1 9.6,3.5 13.1,4.6 l -2.7,-0.7 42.8,17 -6.4,45.4 c -2.3,15.1 -9.5,69.2 -16.8,155.3 -11.2,132.1 -16.7,263.9 -16.7,392.2 l 0.3,23.5 0.2,16.3 116,7 c 25.6,-195.1 57.1,-349.3 96.5,-471.2 30.8,-94.2 61.7,-159.3 100.1,-211.1 26.5,-36.1 83.3,-96.4 167.4,-96.3 10.1,0 19,0.9 26.8,2 248.7,45.6 405.5,293.6 525.8,530.2 62.4,126.5 124.1,278.4 183.1,450.6 l 113,-25.6 c -48.4,-420.7 -98.6,-839.6 -149.6,-1244.9 l -5.6,-44.8 -44.6,-5.7 c -395.9,-51 -783.8,-245.7 -979.9,-357.3 l -58.6,-33.3 v 0"
         style="fill:#4e141a;fill-opacity:1;fill-rule:nonzero;stroke:none"
         id="path44" />
      <path
         d="m 25958.4,12921 c 0.5,-5.1 0.8,-9.8 1.3,-15.8 3.2,-37.7 10.1,-94.6 23.9,-168.4 23.3,-123.7 66.4,-295.1 146.2,-502.5 192.2,109.2 589.2,311 1001.2,364.1 54.1,431.6 103.9,849.5 149.4,1244.4 -56.2,-164.2 -118.2,-320 -186.3,-458 -144.1,-283.4 -310.4,-513.9 -569.4,-561.6 -10.1,-1.3 -21.9,-2.5 -35,-2.5 -94.9,-0.1 -168.8,57.8 -214.2,119.9 -47.4,63.8 -80.4,140.6 -108.9,228 -44.8,139.5 -75.9,307.8 -98.8,481.3 -0.2,-12.9 -0.6,-26.4 -0.6,-39 -0.1,-154.9 8.3,-290.6 16.7,-387.3 8.2,-96.4 16.2,-151.9 16.2,-152 l 13.1,-90.8 -85.4,-33.9 c -1.2,-0.3 -26.3,-10.2 -69.4,-25.9"
         style="fill:#4e141a;fill-opacity:1;fill-rule:nonzero;stroke:none"
         id="path46" />
      <path
         d="m 24150.2,12625.9 h -1.8 c -58.4,0 -122.3,6.9 -190,20.5 -69.5,9.6 -144.3,88 -201.2,214.7 -201.6,432.5 -201.6,1411.3 -201,1521.4 0,35.4 0.3,66 0.6,92.2 l 0.6,45.4 44.5,10.4 c 177.6,41.3 371.5,123.1 576.2,243.2 l 107.5,63.2 -20.7,-123.1 c -44.8,-265.4 -98.1,-665.5 -98.5,-1063.8 0,-179.2 11.2,-343.1 33.4,-487.3 19.2,-136 92,-248.6 205.2,-317.9 l 20.4,-12.4 5.7,-23.4 c 3.8,-15.8 7.8,-33.4 11.7,-52.5 l 8.3,-38.3 -32.5,-22 c -68.7,-46.4 -156.4,-69.5 -268.4,-70.3 v 0"
         style="fill:#4e141a;fill-opacity:1;fill-rule:nonzero;stroke:none"
         id="path48" />
      <path
         d="m 23615,14473.7 c -0.2,-25.8 -0.5,-56.2 -0.5,-91.4 -2.1,-350.4 27.6,-1136.2 195.7,-1497.2 54.9,-121.9 116.8,-175.6 159.5,-181.7 69.3,-13.8 128.9,-19.4 180.2,-19.3 116.8,0.9 187.8,27.9 236.1,60.4 -3.9,18.3 -7.7,35.4 -11.5,50.7 -118.8,72.8 -209.5,197.6 -232.2,358.6 -24.4,159.2 -34,327.9 -34,496.2 0.2,406.7 55.4,814.1 99.2,1073.6 -198.4,-116.4 -397.5,-204.5 -592.5,-249.9"
         style="fill:#4e141a;fill-opacity:1;fill-rule:nonzero;stroke:none"
         id="path50" />
      <path
         d="m 24802.3,9743.5 c 132.4,287.1 261.4,661.1 260.6,988.6 -0.2,175.4 -35.4,334.5 -119.1,468 -1.9,1 -4,2.1 -6.3,3.1 -20.1,10 -49.7,23.5 -85.7,37 -71.7,27.1 -168.4,53 -262.6,53 h -1.4 c -95.6,-0.7 -183.9,-23.4 -262.6,-92 -56.6,-45.7 -102.9,-170.3 -101.5,-357.2 -1.5,-363.1 165,-1111.4 421.9,-1612.5 46.5,82.9 99.6,387.6 156.7,512"
         style="fill:#38363c;fill-opacity:1;fill-rule:nonzero;stroke:none"
         id="path52" />
      <path
         d="m 24750.1,9154.8 c -7.5,-78.4 -30.9,-330.2 -54.2,-681 -28.5,-425.7 -56.9,-995.1 -56.9,-1567.1 0,-442.3 17.1,-886.4 63.5,-1265 45.3,-378 124.8,-692.5 229.5,-860.5 72.1,-114 133.7,-150.8 204.4,-151.6 47,-0.1 112.3,18.7 196.8,75.1 102.3,65.1 237.5,260.8 363.1,555.1 127.4,294.1 253.1,684.4 373.7,1141.6 236.8,895.3 455.1,2047.6 647.8,3257.6 -601,-79 -1195.7,-133.8 -1778.5,-167.8 -84.1,-165.4 -157.9,-286.2 -189.2,-336.4"
         style="fill:#9f1d21;fill-opacity:1;fill-rule:nonzero;stroke:none"
         id="path54" />
      <path
         d="m 23361.7,9445.7 c -292.7,0 -580.6,4.8 -863.2,13.4 -44.7,-93.5 -92.5,-186 -143.2,-276.8 -0.6,-229.4 -10.2,-1731.6 -226.5,-2794.2 -51.7,-250.6 -113.4,-475.5 -193.7,-659.8 7.6,-109.6 44.9,-622.6 122.1,-1270.1 86.8,-730.3 225.2,-1629.6 424.2,-2292.4 128.8,-441.6 301.1,-776.1 448.1,-867.1 5.1,-4 6.1,-3.8 6.5,-3.6 0,0 0,0.1 0.2,0 0,0.3 0.1,-0.4 5,1.9 5.1,2.3 14.3,8.1 26.1,18.8 23.6,21.2 55.6,62 88.8,119.5 67.2,115 140.5,294.5 213.2,518.8 146.1,449.6 292.7,1080.8 430.3,1782.5 275.5,1404.4 516.2,3093.5 664.6,4219.2 83.8,634.2 137.7,1087.1 152.6,1213.4 -54.1,96.9 -104.6,195.6 -151.7,295.5 -339.4,-12.3 -674.6,-19 -1003.4,-19"
         style="fill:#9f1d21;fill-opacity:1;fill-rule:nonzero;stroke:none"
         id="path56" />
      <path
         d="m 22122.4,9179.2 c -30.6,49.4 -95.5,156.3 -170.5,301.4 -437.6,21.3 -860.3,51.3 -1264.6,88 143.3,-1566.2 333.6,-2969.1 556.5,-3654.8 72.3,-235.1 164.7,-382.3 203.2,-399.8 6,-4.1 7.6,-4.4 8.1,-4.5 0.1,0.1 0.2,0.1 0.2,0.1 0,0.1 0.1,0.1 0.1,0 48.1,5 104.6,39.5 167.7,128.6 62.2,87.4 122.1,221.3 173.6,384.8 103.7,327.3 176.4,771.2 224.8,1221.1 93.6,866.4 100.5,1757.1 100.9,1935.1"
         style="fill:#9f1d21;fill-opacity:1;fill-rule:nonzero;stroke:none"
         id="path58" />
      <path
         d="m 19961.5,11327.6 c 22.5,17.1 28.5,26.9 30.8,68 3.7,79.6 -75.3,241.1 -201.8,363.6 -124.5,126.2 -289,213.8 -414.6,211.6 -71.1,-0.8 -131.4,-21.3 -193.7,-80.7 -61.1,-59.1 -122.9,-163.6 -167.2,-332.5 -1.1,-8.8 -4.1,-30.5 -6.9,-65.8 -4,-47.7 -8.3,-118.2 -8.3,-206.6 0,-303.4 65.5,-1093.2 327.8,-1626.7 24.8,114.9 40.8,529.8 82.2,673 113.2,377.5 268.1,799 551.7,996.1"
         style="fill:#38363c;fill-opacity:1;fill-rule:nonzero;stroke:none"
         id="path60" />
      <path
         d="m 27867.5,11472.5 c -3,35 -5.7,56.5 -6.9,65.5 -44.3,168.8 -106.3,273.4 -167.3,332.6 -62.5,59.5 -122.6,79.8 -193.9,80.7 h -4.8 c -124.9,0 -286.8,-87 -409.7,-211.4 -126.4,-122.6 -205.5,-284.3 -201.8,-363.7 2.3,-40.9 8.3,-50.8 30.9,-68 283.6,-197 438.6,-618.9 551.8,-996.1 41.4,-143.1 47,-596.9 71.8,-711.8 262.3,533.4 338.2,1362.2 338.1,1665.5 0.1,88.3 -4.2,158.8 -8.2,206.7"
         style="fill:#38363c;fill-opacity:1;fill-rule:nonzero;stroke:none"
         id="path62" />
      <path
         d="m 24263.6,9694.6 c -65.8,160.2 -121.8,320.5 -165.3,475.5 l -5.9,-9.9 c -317.2,190.6 -537.7,563.1 -582.4,944 -30.7,-3 -58.7,-4.3 -83.9,-4.3 h -1.7 c -22.8,0 -42.9,1.2 -61.3,3 -50.2,-373.8 -268.8,-735.9 -580,-923.2 l -6,10.2 c -45.7,-163.2 -105,-331.7 -175.2,-500.3 249.6,-6.7 502.4,-10.9 759.8,-10.9 295.8,-0.1 597.4,6 901.9,15.9"
         style="fill:#8b311c;fill-opacity:1;fill-rule:nonzero;stroke:none"
         id="path64" />
      <path
         d="m 18454.8,11277.3 c 0.4,154.5 29.7,313.3 83.2,469.6 -480.4,50.5 -1067.7,191.5 -1574.5,329.9 -454.3,124.1 -848.1,247.7 -1020.4,298.5 -0.7,-1.9 -1.4,-3.9 -2.2,-5.9 -23.5,-61.4 -55,-149.7 -86.6,-254.3 -63.2,-209.3 -125.2,-485.6 -125,-743 -0.2,-176.4 29.2,-342.1 98.7,-473.3 70.3,-131.3 175.6,-232.5 354.6,-295.5 331.9,-115.2 1373.3,-385.2 2844,-602.6 -70.6,167.6 -123.2,331.3 -161.3,486 -283.9,182.5 -412.9,481.5 -410.5,790.6"
         style="fill:#8b311c;fill-opacity:1;fill-rule:nonzero;stroke:none"
         id="path66" />
      <path
         d="m 21678.8,10145.9 c -241.5,56.1 -422.4,144.9 -561.4,276.9 -114.7,109.1 -197.1,241 -269.7,395.5 -25.1,-44.4 -55.3,-91.5 -92.4,-139 -157,-203.8 -446.2,-407.8 -903.3,-407.8 h -6.5 c -65.4,0 -134.5,4.4 -206.6,12.7 -37.1,-126.3 -67.3,-248.9 -91.2,-355.5 692.1,-89.9 1462.9,-165.2 2289.6,-209 -57.5,129.8 -113.5,274.1 -158.5,426.2"
         style="fill:#8b311c;fill-opacity:1;fill-rule:nonzero;stroke:none"
         id="path68" />
      <path
         d="m 30267.6,12074.2 c -36.4,42.3 -60,53.9 -100.6,55.3 -26.1,0 -63,-7.5 -112.5,-32.5 -193.6,-94.8 -623.6,-196.5 -1024.3,-284.9 -286.4,-62.4 -550.1,-113.9 -675.7,-137.8 42.5,-139 65.9,-279.4 66.3,-416.5 2.1,-309.1 -126.9,-608.2 -410.6,-790.8 -34.2,-138.4 -80,-284.3 -139.8,-433.5 834.9,161.5 1705,414.4 2537.1,691.6 7.7,94.7 19.5,270.7 19.5,469.9 0.1,170.1 -8.8,356.6 -34.9,518.1 -24.8,161.7 -71.8,297.9 -124.5,361.1"
         style="fill:#8b311c;fill-opacity:1;fill-rule:nonzero;stroke:none"
         id="path70" />
      <path
         d="m 27237,10264.8 c -72.4,-8.4 -141.6,-12.7 -207.1,-12.7 h -6.5 c -457,0 -746.2,204.1 -903.1,407.8 -37.2,47.5 -67.4,94.4 -92.4,138.9 -72.7,-154.4 -155,-286.5 -269.7,-395.4 -139,-131.9 -319.8,-220.8 -561.3,-276.9 -41.4,-139.9 -92.2,-273.2 -144.7,-394.8 739.1,46.7 1496,127 2259.4,249.2 -19.5,83.3 -42.6,173.7 -69.5,266.4 -1.6,5.8 -3.5,11.6 -5.1,17.5"
         style="fill:#8b311c;fill-opacity:1;fill-rule:nonzero;stroke:none"
         id="path72" />
      <path
         d="m 14644,23787.4 c -60.6,98.5 -106.8,220.7 -144.1,341.8 -25.3,82 -46,163.5 -62.6,235.6 -110.3,-144.5 -248.7,-201.9 -372.7,-199.1 -58.4,0.7 -110.9,11.4 -157.3,25.9 -6.1,-137.2 -282.7,-357.1 -282.7,-357.1 11.3,47.3 19.9,94.9 27.5,142.7 -62.5,19.2 -113.3,27.5 -151.3,27.3 -68.5,-1.7 -92.4,-18.4 -114.4,-46.7 -21.7,-29.3 -37.7,-86.4 -37.3,-165.1 -1.3,-206.5 104,-530.5 212.1,-793.5 107.9,-264.2 215,-470.7 215.3,-471.2 l 52.6,-100.8 -111.1,-24.6 c -212.3,-47.4 -337,-125.1 -409.6,-210.5 -72.5,-85.5 -99.2,-183.5 -99.5,-290.9 -1.4,-214.5 119.1,-453.3 180.2,-554.4 20.2,-33.9 32.4,-51.4 32.4,-51.4 l 86,-124.3 -150.5,-12.5 c -0.1,-0.2 -31.7,-2.6 -85.2,-13 -53.3,-10.4 -126.1,-28.6 -200.2,-58.1 -150.3,-60.1 -294.9,-161.5 -335.9,-329 -13.2,-52.5 -19.2,-103.9 -19.2,-154.2 -8.8,-448.4 520.5,-855.8 795.7,-1020.4 90.2,-55.6 148.2,-84.5 148.2,-84.6 v -0.1 l -6.6,-13.2 c 67.5,-4.7 134.1,-7.5 199.7,-7.5 743.8,5.4 1349.6,289 1758.7,1114.4 -446.3,1018.2 -670.5,2049 -752.1,3012.5 -98,21.3 -164.4,99.1 -216.1,182"
         style="fill:#fbc41d;fill-opacity:1;fill-rule:nonzero;stroke:none"
         id="path74" />
      <path
         d="m 19303.4,21184.8 c -85.4,204.8 -152.2,407.3 -195.9,551.2 -100.7,-171 -265.1,-420.6 -452.4,-584.4 -103.5,-89.1 -218,-158.4 -348.8,-159.7 -61.5,-0.3 -124.6,17.6 -180.8,54.1 -434.8,285.3 -302.8,1314.6 -302.8,1314.6 0.3,-0.3 -8.4,-68.7 -8.4,-178.9 -2,-275.3 60.9,-772.8 405.8,-988.7 30,-19.1 56.4,-25.9 86.2,-26.3 92.4,-4.6 237.8,98.7 364.8,249.5 128,148.3 241.9,331.2 311.6,452.8 46.3,81 72.7,133.6 72.7,133.8 l 105,209.9 57.7,-227.5 c 0.3,-0.4 52,-204.8 143.3,-463.4 90.5,-258.1 221.8,-569.4 370,-770.7 98.4,-136.1 202,-211.7 280.7,-214.1 3.2,-0.1 6.3,-0.2 9.4,-0.2 50.2,0.2 97.1,25.8 149.6,90.7 51.2,63.8 98.7,162.2 137.4,274.3 77.8,224.8 332.8,919.4 332.8,919.4 0.3,0 20.2,-51.2 58.6,-130.5 38.6,-79.4 95.1,-185.6 164.9,-290.2 139.2,-213.1 335.8,-403.6 515.4,-398.3 6,0 12.5,0.2 18.6,0.6 206.3,17.6 278.6,91.8 347.9,235.9 65.6,145.4 96.1,362.2 155.2,600.7 0,0 84.3,-489.5 4.5,-671.7 -76.4,-183.6 -237,-327.6 -497.2,-339.3 -9.4,-0.4 -19.2,-0.8 -29,-0.8 -295.1,5.4 -508.6,251.9 -660.7,476 -39.4,59.3 -74.6,118.1 -105,173 -35.1,-256.6 -105.5,-618.3 -241.9,-861.3 -76.9,-135.5 -189.4,-251.8 -351.1,-253.2 -6.6,0 -13.2,0.1 -20,0.6 -169.4,13.1 -299.2,134.5 -410.9,285 -111.9,152.9 -207.3,346 -287.2,537.1 z m 1024.6,-5074.7 16.9,-35.3 c 2,-7.7 614.1,-1276.7 616.3,-2411.8 0,-170.6 -14,-338.9 -47.3,-500.1 4.9,-3.4 10.1,-6.8 15.6,-10.3 49.4,-32.8 121.7,-76.8 210.1,-120.7 176.6,-88 417.3,-173.8 667.6,-173.5 258.7,1.5 527.2,84.6 783.4,360.6 38.2,703.9 91.7,1168 124.9,1408.3 -160.5,74.2 -326.7,167.4 -496.9,273.6 -426.7,267.7 -874,621 -1282.6,973.7 -816.8,705.2 -1310,1569.1 -1310,1569.1 0.1,-0.2 91.3,-97.2 249.2,-256.4 157.7,-159.3 381.6,-379.9 644.1,-625 524.8,-489.9 1206.7,-1077.6 1823,-1464.1 205.2,-129.8 404.2,-235.7 584.5,-308.7 l 47.6,-8.8 c 0.1,0 -0.6,-3.6 -1.5,-9.1 160.6,-61 305.2,-94.6 423.9,-93.5 30.5,0 59.3,2 86.4,6.1 391.8,56 887.6,386.6 1336.2,785.7 450.1,398 859.5,859.2 1113.8,1163.5 169.3,202.8 269.1,334.7 269.4,334.9 0,0 -226,-684.6 -785.1,-1251.1 -287,-288.5 -609.3,-584.7 -941.1,-819.5 -13.6,-67 -37.6,-193 -61.8,-355.6 -36.9,-246 -73.4,-572.9 -73.4,-892.1 0,-159.6 9.2,-317.2 31.3,-460.8 18.9,-108.4 62.7,-160.8 140.2,-205.7 78,-43.3 196.9,-65.5 333.9,-65.1 348.5,-0.9 796,137.3 992.4,206.9 6.7,2.4 13.3,4.8 19.5,6.9 -10.3,100.2 -24.1,272.9 -24.1,478.7 0.4,326.2 33.2,735.5 179.2,1081.1 138,321.8 535.4,874.5 904.1,1363.1 273.2,360.5 528.3,679.4 641.9,820.3 -67,86.5 -132.3,176.7 -195.1,269 -357,525.1 -642.7,1116.5 -786.9,1397.6 -22,43.4 -42,80.5 -56.4,106.2 -32.3,31.9 -60.5,61.4 -83.6,86.8 -6.6,5.4 -13.4,10.8 -20.8,16.9 -48,39.1 -111,90.6 -183.7,153.1 -145.5,125 -329.3,294.1 -512.5,499.4 -347.4,391 -697,915.5 -757.4,1529.2 -127.1,30.4 -352.6,115.9 -588.1,320.6 -369.9,321.3 -658.1,884.4 -656.8,1932.1 0,131 4.8,269.6 15.5,416.2 0,0 174.3,-1677.6 745,-2125.1 298,-233.5 543.7,-321 595.9,-328.2 6.7,-1.1 7.6,-1.1 7.6,-1.1 l 101.7,-8.4 2.2,-47.3 14.9,10.9 c 82.4,-115.9 294.9,-218.2 498.3,-216.3 137,0.2 265.6,41.8 361.2,138 95.4,96.5 315,798.5 315,798.5 0.2,-0.1 22.8,-53.2 64.6,-135.1 41.8,-81.8 102.1,-191.5 175,-299.7 144.2,-220.3 347.9,-418 505.2,-410.7 53,0.5 106.7,16.7 169.4,64.8 363.7,281.1 459.8,726.5 482.6,931.6 7.8,68.1 7.8,105.7 7.8,105.8 v 275.4 l 158.6,-225.1 c 0.3,0 42,-59.7 118.5,-151.6 76.4,-92.1 186.4,-215.2 318.7,-337.3 264.6,-246.2 619.8,-482 959.7,-479.7 48.3,0 96.6,4.5 145,14.1 99.5,19.3 185.6,100.2 258.4,235.7 71.8,133.9 124,314 159,497.8 51.4,267.1 67.8,541 72.9,703 -675.7,2637.3 -2535.8,4342.1 -3075,4789 -10.5,8.8 -20.4,16.8 -29.7,24.7 -102.7,-176.1 -252.9,-303 -420.6,-384.8 -268.4,-133.1 -579.2,-168 -851.2,-168.3 -150.3,0 -289.2,11.1 -402.6,24.5 9.9,-15.1 20.2,-30.7 30.4,-46.9 102.1,-165.1 212,-371 214.5,-582.8 5.5,-152.5 -81.2,-319.4 -258.8,-392.9 -78.4,-34.8 -163,-48.4 -249.1,-48.4 -332.4,2.9 -708.6,190.1 -1017.5,370 -135,79.8 -255.4,159.1 -348.1,223.2 -1.1,-150.6 -9.4,-350.2 -42.5,-536.9 -39.1,-197.9 -88.7,-389.9 -252.2,-496.7 -39.1,-23.5 -85,-35.7 -128.8,-35.3 -136.4,4.5 -233.9,85.1 -330.5,177.9 -95.5,95.3 -185.8,215.2 -266.3,334 -52.8,77.9 -101.1,155.5 -142.3,224.5 -76,-249.8 -205,-624 -370.9,-920 -41.7,-80.7 -127.2,-144.3 -218.6,-144.3 -1.7,0 -3.5,0 -5.4,0 -154.8,7.8 -256.9,110.1 -369.1,229.6 -109.6,123 -217.5,279.5 -314.9,435.4 -106.5,170.5 -199.9,339.9 -262.8,458.6 -51.7,-60.4 -118.7,-133 -197.3,-206.6 -189.5,-174 -443.9,-362.4 -741.5,-365.8 -95.5,-0.2 -194.2,21.7 -287.7,71.2 -153,80 -249,213.6 -301.5,355 -53.3,142 -68.9,294.1 -69.1,436 0.1,86.4 6.1,169 14.5,243 -108.2,-53.6 -242.9,-105 -396.9,-157 -317.9,-107.3 -718.9,-216.5 -1110.5,-332.5 -52.3,-15.4 -101.4,-24 -149.3,-24 -93,-2.7 -187.6,42.3 -236.2,117.2 -49,73.5 -61.2,156.3 -61.7,242.4 2.4,277.7 140.5,650.5 274.6,971.5 44.6,105.4 89,203.9 128.6,288.6 -140.8,-60.2 -321,-135 -512.8,-210.1 -436.6,-168.3 -915.4,-339.6 -1194.9,-343.2 -12,0 -23.9,0.4 -35.8,1.1 -66.9,3.4 -137.5,32.8 -180.1,88.5 -42.7,54.8 -53.8,117.9 -54,176 1.1,113.1 40.2,231 92.3,357.5 52.8,125.6 121.3,256.4 189.3,376.3 45,79.1 90,153.5 129.9,217.5 -22.4,-0.9 -45,-1.3 -67.6,-1.3 -68.2,0.1 -137.2,4.8 -205.8,12.4 -19.8,-44.8 -58.5,-134.1 -109.8,-265.3 -76.2,-193.7 -178.1,-474.7 -281.3,-820.4 -206.7,-691.4 -417.8,-1642.9 -436.8,-2676.5 -1.3,-64.8 -1.9,-130.3 -1.9,-196.4 3.6,-2694.7 1018.1,-6176.6 5237.8,-8373.7 l 34.5,-17.9"
         style="fill:#cc2028;fill-opacity:1;fill-rule:nonzero;stroke:none"
         id="path76" />
      <path
         d="m 20775.5,12169.5 -58.6,33.5 c -57.3,32.7 -149.1,82.5 -259.8,134 l -31.5,14.7 -2.2,34.8 c -17.5,311 -34.2,629.3 -49,946.5 l 107.9,33.2 c 87.7,-143.2 169.3,-236.1 256.7,-292.5 1.2,-1.3 6,-4.3 13.9,-10 21.7,-16.3 87.7,-65.1 188.6,-123.6 l 33,-19.1 -4.4,-37.9 c -12.4,-110.6 -51.3,-342.2 -170.2,-650.4 l -24.4,-63.2 v 0"
         style="fill:#4e141a;fill-opacity:1;fill-rule:nonzero;stroke:none"
         id="path78" />
      <path
         d="m 20745.7,12253.7 c 115,298.4 153.5,520.9 166.6,636 -123.5,71.5 -197.4,130.3 -201.2,132.3 l -3.5,2.9 c -109.7,70.5 -198.2,185.3 -275,310.7 14.3,-306.5 30.7,-623.2 49.1,-945.9 107,-49.7 197.7,-98.5 264,-136"
         style="fill:#4e141a;fill-opacity:1;fill-rule:nonzero;stroke:none"
         id="path80" />
      <path
         d="m 18767,11285.2 c 0,191.4 17.8,307.8 18.4,312.8 l 1.1,6.2 1.2,5 c 51.8,200.1 129.1,347.2 232,447.8 102.5,100.8 231.9,147.6 356.2,146.9 222.1,-2.4 423.9,-126.6 579.1,-279.6 153.1,-156.1 266.4,-340.5 270.3,-528.7 2.2,-95.6 -42,-202.3 -134.4,-261.8 -134.4,-85.5 -272.2,-327.1 -368.9,-595.8 -3.4,-9 -6.4,-18.3 -9.6,-27.6 46.5,-4.1 90.9,-6 133.1,-6 344.3,1.3 544.4,123.5 675.2,259.2 130,136.1 184.7,292.6 200.8,350.8 4.5,16.6 5.7,22.3 5.7,22.3 l 4.3,-1 c -7.5,41.8 -11.4,83.2 -11.4,124 2.1,290.5 170,526.5 325.4,692.8 157,166.1 310,265.4 314.7,268.7 0,0 -479.9,-524.8 -407.1,-961.5 9.5,-57.4 10.4,-117.5 35.3,-179.9 88.7,-222.2 172.6,-377.9 289.2,-487.8 83.6,-78.9 188.4,-140.4 337.8,-187.4 -21.7,115 -35,231.6 -35.8,347 -0.1,217.7 47.1,435.8 175.1,622.6 l 14.7,21.6 22.6,13.1 c 8.9,3.7 225.7,134.8 495.7,136.6 134.5,0.7 287.6,-36.8 416,-149.6 138.4,-124.7 179.8,-315.9 181.1,-532.5 -0.4,-101.2 -11,-210.9 -29.7,-325.9 171.6,189.4 288.5,467.8 286.3,719.1 -0.4,170.7 -49.6,324.1 -158,441.8 -108.8,117.5 -282.9,207.8 -560.1,231.6 l -50.5,4 -31.3,39.9 c -101.7,132 -124.2,296.2 -125.2,449.8 0.2,98.3 10.8,194.4 24.5,278.4 -144.2,-53.8 -289.2,-76.7 -427.5,-76.7 -2,0 -4,0 -6.1,0.1 -256.3,1.4 -489.8,71.9 -675.1,152.9 -25.8,-163.5 -85.2,-419.7 -222.3,-739.6 l -54.6,-126.9 -115.8,75 c -0.3,0 -38.1,24.6 -107,63.6 -68.9,38.9 -167,91.1 -282.5,143 -230.4,104.4 -530.6,205.7 -792.1,204.7 -215.9,-1.4 -394,-60.9 -526.5,-229.8 -217.7,-278.9 -344.3,-609.6 -343.6,-891.1 1.3,-149 34.5,-280.9 104.5,-393.2 -18.8,153.8 -25.2,290.3 -25.2,401.1"
         style="fill:#38363c;fill-opacity:1;fill-rule:nonzero;stroke:none"
         id="path82" />
      <path
         d="m 12541.8,20604.3 c 0,64.2 7.8,130.2 24.5,196.6 62.9,248.5 267.7,380.2 440.7,448.9 74,29.4 144.5,48.7 201.6,61 -71.3,129.6 -172.4,353.2 -174.5,590.4 -0.4,136.8 37.3,282.3 141.2,404.2 87.3,102.6 217.4,184.8 397.6,239.6 -42.6,87.9 -107.9,227.6 -173.4,388.3 -110.5,273.4 -223.9,602 -225.2,859.4 0.5,98.5 16.5,190.9 70.1,267 53.6,77 149.2,121.2 256.4,119.5 52.1,-0.1 109,-9.4 171.1,-26.2 3.1,46.9 5.2,93.9 5.2,141.1 3.9,882.6 -559.2,1782.7 -1068.8,2156 -168,125.6 -327.5,188.2 -438.2,186.9 -87.6,-2.1 -144.7,-27.9 -201.1,-102.7 -58.8,-81.4 -118.2,-159.6 -177.6,-235.8 1.4,-9.5 2.9,-18.8 4.2,-28.4 l -29.4,-4.3 c -213.1,-271.4 -423.1,-511.8 -590.2,-728.1 -222.1,-284.5 -358.8,-527 -355.8,-716.3 0.1,-22 1.7,-43.1 4.9,-64.5 29.8,-161 130.8,-250.5 340,-256.7 275.4,-2.8 728,212.5 1200.1,815.5 0,0 -394.8,-1570.4 -394.4,-2025 0,-197.7 27.1,-390.7 91.1,-569.7 l -219.3,-78.4 c -74.8,209.4 -104.5,429.3 -104.5,648.1 1.4,489.2 147.6,977.4 297.6,1350.5 -316.9,-257.1 -616.5,-372.2 -870.6,-374 -293.5,-6.1 -532.9,180.5 -570,453.8 -5.3,33.7 -7.7,67.2 -7.7,100.4 3,294 178.1,563.1 404.4,858.8 163.2,211 358.2,436 554.3,682.9 -245.3,1593.8 -551.4,2560.6 -843.6,3120.1 -301.9,577.9 -575.5,707.2 -735.24,705.3 -27.03,0 -52.06,-3.4 -75.31,-9.5 -1.89,-1.9 -4.71,-5.8 -8.27,-11.6 -10.74,-17.8 -24.48,-54.1 -35.03,-103.3 -21.83,-98.7 -32.84,-247.7 -32.55,-422.9 -0.29,-479.9 77.08,-1160 154.73,-1716.5 77.57,-556.9 154.97,-990.2 155.17,-991.1 0,0 370.6,-602.8 359.1,-1072.1 -11.4,113.1 -497.61,825.8 -896.24,1280.4 -397.78,456 -825.39,872.6 -1044.79,1036.6 -154.85,116.3 -321.74,167.3 -459.52,167 -105.06,0.1 -190.72,-29.2 -245.5,-73.7 -54.22,-45.1 -84.98,-101 -86.12,-190.2 0,-19.1 1.7,-40.1 5.45,-62.6 9.33,-75.4 125.77,-316.3 291.14,-593.2 165.56,-280.7 380.55,-614.2 593.38,-933.4 383.64,-575.5 758.84,-1103.1 830.01,-1202.5 22.31,6.1 45.73,10 70.86,10.2 75.22,0.7 147.5,-36.1 200.5,-90.4 145.42,-145.5 541.03,-506.2 937.43,-900.2 397.6,-396.6 795.7,-820 967.8,-1131.4 48.7,-90.6 83,-172.4 84.5,-262.6 0.2,-47.5 -12.8,-100.9 -46.1,-144.4 -33.3,-43.7 -81.7,-71.1 -130.6,-84.7 -89.3,-25.4 -187.7,-36.5 -292.8,-36.5 -324,0.9 -714.4,104.1 -1055.6,282.1 -339.34,179 -512.74,830.7 -512.74,830.7 66.47,-235 311.04,-463.7 620.64,-624.4 307.5,-161.6 673.7,-256.1 947.7,-255.4 88.3,0 166.6,9.6 228.7,27.4 3.6,1 6.1,1.8 7.8,2.4 0,0.7 0,1.6 0,2.8 1.4,19.3 -14.7,78.1 -55.7,150.7 -40,73.5 -101.3,162.5 -177,259.9 -151.9,195.2 -361.9,423.7 -583.2,649.6 -443.6,452.9 -929.44,893.5 -1105.37,1069.3 -24.57,23.3 -31.72,21.6 -35.96,22.3 -5.74,3.3 -54.2,-16.2 -110.78,-87.7 -56.38,-68.7 -117.56,-174.4 -174.51,-293.8 -114.46,-239.4 -214.14,-534.4 -274.66,-730.2 -24.29,-78.9 -42.16,-141.4 -52.72,-178.6 0.1,-0.2 0.19,-0.3 0.19,-0.4 10.37,-19.6 26.94,-48.3 48.29,-83.2 42.93,-70.3 106.09,-167.4 185.53,-284.3 159.06,-234.1 383.94,-548.1 649.93,-895.9 531.76,-695.2 1229.76,-1526.2 1893.76,-2124.7 441.2,-399.5 871.9,-692.9 1204.2,-776.9 121.1,-31.2 240.4,-57.4 357.9,-78.2 -63.8,44.7 -132.7,96.4 -202,155 -254.9,217.2 -524.7,527.7 -527.1,915.9"
         style="fill:#28469b;fill-opacity:1;fill-rule:nonzero;stroke:none"
         id="path84" />
      <path
         d="m 20728.4,13663 c 1,610.8 -198.6,1292.4 -366.7,1755.9 7.5,-436.3 23.1,-955.6 46.3,-1525.6 1.5,-3.5 2.8,-6.6 4.4,-10.2 28.6,-65.8 69.5,-155.3 117.5,-247.8 50.9,-102.2 116.4,-208.8 177.8,-289.7 13.4,102.3 20.7,208.5 20.7,317.4"
         style="fill:#7d161f;fill-opacity:1;fill-rule:nonzero;stroke:none"
         id="path86" />
      <path
         d="m 14064.6,24340.5 c 104.5,3.8 222.5,42.2 329,312.9 l 117.3,312.4 50.9,-329.9 c 0.1,-0.2 19.6,-127.8 59.1,-288.4 38.9,-160.2 99.9,-353.1 171.8,-468.6 18.1,-29.9 35.9,-52.5 52.2,-68.8 -15.3,235.3 -22.2,466.4 -22,691.6 0,67.4 0.5,134.4 1.8,200.8 34.9,1841.6 656.3,3406.1 823.5,3796 -77.2,16 -152.7,35 -225.1,55.7 -6.3,-4.3 -11.8,-8.1 -18.7,-13.1 -52.4,-38.6 -125.1,-97.9 -209.9,-175.9 -169.6,-155.5 -388.6,-384 -607.2,-669 -438,-570.8 -871.7,-1367.3 -927.3,-2265.5 l -2,0.1 c 142.7,-326.7 237,-685.9 249.9,-1053.4 43.7,-19.7 100.2,-37.2 156.7,-36.9"
         style="fill:#cc2028;fill-opacity:1;fill-rule:nonzero;stroke:none"
         id="path88" />
      <path
         d="m 25402.5,35618.2 c -0.1,0 -0.1,0 -0.1,0"
         style="fill:none;stroke:#100f0d;stroke-width:7.5;stroke-linecap:round;stroke-linejoin:round;stroke-miterlimit:4;stroke-dasharray:none;stroke-opacity:1"
         id="path90" />
      <path
         d="m 7757.53,28288.6 c 0,0 1324.75,-538.6 1994.27,-1717.6 669.6,-1179.1 625.9,-1761.4 1208.2,-2620.2 582.3,-858.9 888,-1470.3 888,-1208.3 0,262 -116.4,829.8 130.9,1266.4 247.6,436.7 160.2,873.5 160.2,873.5 0,0 -494.9,-538.7 -902.5,-509.5 -407.6,29.1 -640.5,305.8 -407.6,786 232.9,480.4 -72.8,2154.4 -378.5,3333.5 -305.6,1179.1 -436.7,1921.5 -538.59,1761.4 -101.85,-160.2 -189.19,-727.8 -145.52,-1645 43.67,-917 101.85,-1746.8 101.85,-1746.8 0,0 -829.74,1208.2 -1251.89,1499.4 -422.06,291.1 -858.82,-72.8 -858.82,-72.8"
         style="fill:#252d62;fill-opacity:1;fill-rule:nonzero;stroke:none"
         id="path92" />
      <path
         d="m 7878.86,28084.8 c 0,0 776.26,-1436.2 1290.76,-2076.7 514.31,-640.4 844.18,-863.7 844.18,-863.7 0,0 -514.26,1174.1 -950.9,1785.6 -436.77,611.4 -1174.34,1232.5 -1184.04,1154.8"
         style="fill:#4289ce;fill-opacity:1;fill-rule:nonzero;stroke:none"
         id="path94" />
      <path
         d="m 10392.3,29846.2 c 0,0 567.7,-1645 684.1,-2518.4 116.5,-873.3 349.4,-873.3 334.9,-160.1 -14.6,713.3 -611.4,2445.6 -1019,2678.5"
         style="fill:#4289ce;fill-opacity:1;fill-rule:nonzero;stroke:none"
         id="path96" />
      <path
         d="m 12706.8,20224.2 c 0,0 -1251.9,698.7 -1906.9,1470.3 -655,771.4 -1499.34,1673.9 -1484.76,2372.7 14.5,698.7 684.12,72.9 1077.16,-291.1 393.1,-363.9 494.9,43.6 -58.2,669.5 -553.23,625.9 -800.59,1048.2 -1164.48,451.3 -363.98,-596.8 -509.6,-1179.1 -43.77,-1732.2 465.83,-553.1 2110.75,-2678.3 3056.95,-3260.7 946.2,-582.3 1251.9,-480.3 1251.9,-480.3 0,0 -538.7,480.3 -727.9,800.5"
         style="fill:#4289ce;fill-opacity:1;fill-rule:nonzero;stroke:none"
         id="path98" />
      <path
         d="m 27967.1,18263.9 c 0,0 252.2,-999.5 650.2,-1387.7 397.8,-388.1 679.2,38.8 679.2,38.8 0,0 -155.3,-601.6 -553.2,-650.1 -397.7,-48.6 -960.6,446.3 -1300.2,989.7 -339.8,543.5 -669.7,1300.5 -669.7,1300.5 0,0 533.7,-378.5 1193.7,-291.2"
         style="fill:#4289ce;fill-opacity:1;fill-rule:nonzero;stroke:none"
         id="path100" />
      <path
         d="m 12044.4,26338 c 0,0 -1128.1,-1200.8 -1113.5,-1462.9 14.5,-262 560.4,80.1 822.5,531.3 261.9,451.3 291,931.6 291,931.6"
         style="fill:#4289ce;fill-opacity:1;fill-rule:nonzero;stroke:none"
         id="path102" />
      <path
         d="m 15545.4,28608.8 c 0,0 -844.3,-582.3 -1135.5,-1931.1 -291.1,-1349 -320.2,-2300 -194.1,-2261.1 126.3,38.8 281.5,242.6 300.9,-19.5 19.5,-261.9 388.2,-815.2 388.2,-630.7 0,184.4 -97.1,1183.9 106.8,2018.4 203.7,834.7 737.5,2785.2 737.5,2785.2 l -203.8,38.8"
         style="fill:#9f1d21;fill-opacity:1;fill-rule:nonzero;stroke:none"
         id="path104" />
      <path
         d="m 15851,28652.5 c 0,0 -261.9,-363.9 -261.9,-931.6 0,-567.7 -58.2,-1004.4 436.6,-946.2 494.9,58.3 829.7,232.9 829.7,232.9 0,0 -218.3,-1179.1 262.1,-1484.8 480.3,-305.5 1717.6,524.1 1717.6,524.1 0,0 -14.5,-626 684.1,-902.5 698.8,-276.5 1208.3,101.8 1208.3,101.8 0,0 393.1,-640.4 989.8,-698.7 596.8,-58.1 844.4,538.6 844.4,538.6 0,0 596.7,-611.3 1208.1,-320.2 611.4,291.1 538.7,684.2 538.7,684.2 0,0 1280.9,-611.4 1732.2,87.4 451.2,698.6 218.3,1062.6 218.3,1062.6 0,0 349.5,-349.4 815.2,-276.7 465.8,72.9 451.2,538.6 451.2,538.6 l -713.2,786.2 c 0,0 -131,-553.2 -684.3,-640.6 -553.1,-87.2 -1033.5,14.6 -1033.5,14.6 0,0 320.3,-596.8 87.5,-902.5 -233,-305.7 -757.1,-203.8 -1164.7,101.9 -407.5,305.7 -553.1,393 -553.1,393 0,0 14.6,-902.5 -261.9,-1048 -276.6,-145.7 -786.2,786 -786.2,786 0,0 1324.7,305.7 -553.1,465.8 -1877.8,160.2 -2649.2,1077.2 -3260.7,1790.4 -611.4,713.3 -2751.2,43.7 -2751.2,43.7"
         style="fill:#9f1d21;fill-opacity:1;fill-rule:nonzero;stroke:none"
         id="path106" />
      <path
         d="m 15395.5,28806.2 c 12.1,4 27.5,7.1 50.4,8.8 v -24.7 c 204.4,-61.4 435.3,-109.9 645.4,-109.6 98.1,0 191.3,10.4 275,33.4 l 307.5,83.4 -181.1,-262.1 c -0.1,-0.4 -73.1,-105.8 -165.2,-256.3 -92,-150.3 -202.1,-345 -273,-513.9 -47.6,-111.6 -75.2,-214.5 -74.3,-267.3 0,-15.7 2.3,-25.8 3.6,-30.1 2.5,-0.6 6.6,-1.5 12.9,-1.9 6.1,-0.4 13.1,-0.6 20.6,-0.6 191.7,-3.5 688.6,160.5 1110.2,327.2 425.7,166.3 792.7,332.5 793.4,332.9 l 307.7,139.5 -156.4,-299.5 c -0.1,-0.2 -32.3,-61.8 -81.4,-163.1 -49.1,-101.3 -114.7,-241.6 -180,-396 -131.2,-306.5 -258.5,-680.4 -256,-880.8 -0.7,-60.9 12.2,-99.7 21.3,-111 9.5,-9.9 5.4,-12.9 43.6,-15.6 19.2,-0.2 47.1,3.6 83.3,14.4 345.2,102.2 694.4,198.5 982.7,290.6 286.9,90.3 518.2,184.5 601.2,253 23.6,18.2 31.1,30.7 30.6,31.1 3.7,8.4 6.9,15.4 10.5,22.9 6.5,9.4 1.3,11.3 30.4,41.9 10.5,7.6 28.1,28.1 79.1,30.6 34.3,1.5 73.2,-20.1 88.6,-40.5 16.8,-20.2 20.9,-35.1 24.2,-45 5.1,-20.1 4.2,-27.3 4.5,-33.7 -1.5,-35.7 -5.8,-45.1 -11.2,-78.9 -5.7,-30.2 -12.9,-69.4 -20.3,-115.3 -14.3,-92 -28.5,-211.3 -28.5,-333.6 -0.1,-124 15,-250.8 54.1,-353.9 39.8,-103.8 97.9,-180.9 192.1,-231 60,-31.4 118.2,-44.3 179.2,-44.5 164,-2 357.3,107.5 516.6,244.6 159.4,135.3 283.8,290.1 329.6,350.1 13.1,17.1 19,25.6 19,25.6 l 113.1,159.5 86.3,-175.6 c 0.3,-0.3 82.7,-168.5 203.5,-379.8 120.2,-210.9 279.7,-464.6 422.1,-623.7 91.9,-109.3 186.8,-159.2 195.4,-151.8 1.5,-0.2 0,0 1.5,0.4 1.9,1.2 9.5,7.3 19.5,25.2 124.7,221.1 232.7,507.3 307.5,736.2 75.1,229.1 117.8,399.1 117.8,399.5 l 75.1,300.1 141.4,-275.2 c 0.4,-0.2 64.6,-125.7 161.4,-284.1 96.3,-157.9 226.2,-347.6 343.7,-464.2 76.9,-80 151.5,-114.6 166.1,-110 5,0.3 5.4,0.3 9.6,2.4 45.3,18.4 114.5,159.2 142,337.6 31.6,176.4 39.2,381.6 39.1,526.9 0,116.4 -4.5,193.3 -4.5,193.5 l -14.9,255.5 202.5,-156.7 c 0.2,0 54.5,-42.3 147.4,-107.3 92.6,-65.1 222.3,-151.9 368.8,-238.4 291.3,-174 658.2,-340.9 899.1,-337.8 61.5,0 113.2,10 154.5,28.2 99.9,49.9 115.3,92 120.5,180.2 1.3,91.3 -45.3,221.9 -110.6,342 -64.6,120.7 -144.3,232.4 -197.2,301.2 -35.1,45.8 -57.2,71.3 -57.3,71.3 l -231.6,269 345.8,-79.3 c 0.3,0.2 69.8,-16.1 186.9,-32.8 116.9,-16.8 278.8,-33.3 454.6,-33.3 251.4,-0.6 530.9,35.2 747.3,143.8 183.1,93.6 322.6,227 390.7,450.8 -955.4,47.1 -1672.3,801.8 -1973.8,1678.2 -157.2,455.5 -216.1,854.8 -216.1,1195.7 0,461.6 107.8,814.1 220.8,1056.4 -184.5,-149.5 -314.7,-317.8 -360,-385.8 -8.2,-11.8 -13.5,-19.7 -16.1,-23.9 -301.8,-574.6 -408.8,-1052.8 -408.8,-1444.7 -0.8,-940.7 853.7,-1786.1 853.7,-1786.1 -1802.9,115.2 -2808,746.6 -3352.2,1390.1 -544.4,645.9 -627.5,1278.2 -629,1425.1 0,3.3 -0.1,7.5 0.3,14.2 v 0 c 7.5,162 32.7,314.3 71.9,456.3 -182.2,-149.7 -405.7,-200.1 -614.3,-200.1 -1.3,0 -2.6,0 -3.9,0.1 -471.2,1.8 -906.6,233.6 -914.8,236.5 0,0 718.4,-4.1 914.8,-3.8 12,0.1 23.7,1 35.6,1.4 -172.1,75.4 -344.7,187 -504.8,320 -264.8,221.4 -493.5,500.4 -608.6,781.3 -146.2,359.9 -220.7,828.2 -221,1341.1 1.3,1148.5 374.3,2523.6 1231.2,3354.6 475.5,459.4 1130.8,655.2 1764.1,655.4 890.3,-2.4 1761.1,-383.1 2040.5,-1030.7 295.2,268.4 649.7,463.3 1072.1,546.2 -927.1,694.5 -1868.7,940.8 -2750.6,941.4 -1764.8,2.5 -3293.1,-1002.4 -3845.3,-1417.7 l 830.1,-83 -46.1,-138.2 c -45.8,-121.8 -154,-228.2 -299.4,-368.2 -144.8,-135.6 -325.6,-285.4 -503,-426.3 -167.1,-132.5 -331.3,-256.7 -458.2,-351 l 677.2,-84.7 -111,-158.4 c -241.3,-342.9 -580.5,-1116.8 -899.5,-1937.2 -320.3,-821.8 -625.8,-1696.4 -818.8,-2264 -128.7,-378.5 -207.1,-619.7 -207.2,-620.3 l -7.7,-23.7 -17,-18.7 c -1.3,-1.3 -301.1,-330.3 -675.9,-683.2 -291.6,-271.9 -617.2,-557.2 -905.6,-722.3 53.4,-22.1 114.6,-46.1 181.1,-70 43.7,-15.8 90.5,-31.2 138.3,-46.4"
         style="fill:#cc2028;fill-opacity:1;fill-rule:nonzero;stroke:none"
         id="path108" />
      <path
         d="m 21542.6,9627.1 c 0,0 305.8,-3872.1 87.4,-4119.7 -218.4,-247.3 -684.1,393.1 -829.7,1659.6 -145.5,1266.4 -276.6,2445.5 -276.6,2445.5 l 1018.9,14.6"
         style="fill:#cc2028;fill-opacity:1;fill-rule:nonzero;stroke:none"
         id="path110" />
      <path
         d="m 21804.7,5405.6 c 0,0 436.7,-3391.7 858.8,-3930.3 422.2,-538.601 538.7,-160.1 844.3,1106.4 305.6,1266.4 757,3741 757,3741 0,0 -727.9,-2984.1 -1237.3,-3086 -509.6,-101.9 -829.7,3508.1 -829.7,3508.1 0,0 -407.7,-989.8 -393.1,-1339.2"
         style="fill:#cc2028;fill-opacity:1;fill-rule:nonzero;stroke:none"
         id="path112" />
      <path
         d="m 24672.3,8855.5 c 0,0 -407.5,-2198 -116.4,-3348.1 291.1,-1149.8 756.9,-1397.3 1251.9,-247.3 494.8,1149.9 538.5,2270.8 538.5,2270.8 0,0 -640.4,-1732.2 -1062.6,-1921.4 -422.1,-189.3 -393.1,3988.5 -393.1,3988.5 0,0 -174.6,-276.6 -218.3,-742.5"
         style="fill:#cc2028;fill-opacity:1;fill-rule:nonzero;stroke:none"
         id="path114" />
      <path
         d="m 21765.8,9598 c 0,0 155.4,-2047.7 97.1,-2882.3 -58.2,-834.5 -58.2,-834.5 -58.2,-834.5 0,0 417.3,1387.7 485.2,1950.6 68,562.7 38.8,980 38.8,980 0,0 281.4,-2348.4 844.2,-3027.7 563,-679.3 1057.9,281.3 1135.6,1009.2 77.6,727.8 378.4,2387.3 252.2,2513.4 -126.1,126.3 -232.9,310.6 -232.9,310.6 l -1853.5,-77.7 c 0,0 -106.7,-281.2 -194.1,-397.8 -87.3,-116.5 -300.8,417.3 -300.8,417.3 l -213.6,38.9"
         style="fill:#7d161f;fill-opacity:1;fill-rule:nonzero;stroke:none"
         id="path116" />
      <path
         d="m 25269.1,9699.8 c 0,0 -145.5,-2358.1 174.7,-2882.1 320.3,-524.1 1091.8,1382.8 1091.8,1382.8 l 232.9,1543 -1499.4,-43.7"
         style="fill:#7d161f;fill-opacity:1;fill-rule:nonzero;stroke:none"
         id="path118" />
      <path
         d="m 26171.6,16890.8 c 0,0 -451.2,-1179.1 -931.6,-1746.8 -480.3,-567.7 29.1,-1106.4 349.4,-800.6 320.3,305.6 567.7,509.5 567.7,509.5 0,0 -218.4,-1645 -189.2,-1746.8 29.1,-101.9 -786,-451.3 -1222.8,-334.9 -436.6,116.5 -596.8,495 -567.7,1077.3 29.1,582.2 174.7,1091.7 174.7,1091.7 0,0 1077.2,902.5 1819.5,1950.6"
         style="fill:#9f1d21;fill-opacity:1;fill-rule:nonzero;stroke:none"
         id="path120" />
      <path
         d="m 20188.8,16803.4 c 0,0 1150.1,-1339.2 1892.5,-1717.6 742.4,-378.4 800.6,-247.5 742.4,-844.4 -58.2,-596.7 -58.2,-1280.9 -538.7,-1455.5 -480.3,-174.7 -1353.7,116.4 -1441,363.9 -87.4,247.3 58.2,873.3 -116.5,1528.4 -174.7,655 -378.5,1208.2 -378.5,1208.2 0,0 640.5,-553.2 771.6,-1353.7 130.9,-800.7 989.7,-786.2 655,-160.2 -334.9,625.9 -1251.9,1528.4 -1586.8,2430.9"
         style="fill:#9f1d21;fill-opacity:1;fill-rule:nonzero;stroke:none"
         id="path122" />
      <path
         d="m 25929,14061.9 c 0,0 -38.7,-592 -708.3,-601.6 -669.7,-9.7 -815.2,1048 -766.6,1348.9 48.5,300.8 48.5,300.8 48.5,300.8 0,0 -116.5,-271.6 -184.4,-611.3 -67.9,-339.7 -194.2,-1222.8 116.4,-1514 310.5,-291 931.6,-116.4 1261.6,-19.3 329.9,97 320.3,223.1 300.8,252.3 -19.4,29.1 -68,844.2 -68,844.2"
         style="fill:#7d161f;fill-opacity:1;fill-rule:nonzero;stroke:none"
         id="path124" />
      <path
         d="m 20717.8,14576.3 c 0,0 135.9,-591.9 77.7,-1019 -58.2,-426.9 -106.8,-465.8 271.7,-611.4 378.4,-145.5 1407.1,-291.1 1591.5,203.9 184.4,494.9 165,1436.1 165,1436.1 0,0 -9.7,-931.5 -650.2,-1115.9 -640.4,-184.4 -1271.3,426.9 -1455.7,1106.3"
         style="fill:#7d161f;fill-opacity:1;fill-rule:nonzero;stroke:none"
         id="path126" />
      <path
         d="m 19825,10946.8 c 0,0 310.6,-194 465.9,29.2 155.2,223.2 177.7,571.4 564.3,935.9 386.6,364.5 590.4,364.5 590.4,364.5 0,0 -397.8,-747.3 -145.5,-1086.9 252.2,-339.7 417.2,-349.4 417.2,-349.4 l -38.8,-524.1 c 0,0 -320.2,9.8 -504.5,242.6 -184.5,232.9 -291.3,407.6 -291.3,407.6 0,0 -58.1,-271.7 -378.5,-417.3 -320.1,-145.5 -941.1,-155.2 -941.1,-155.2 l 261.9,553.1"
         style="fill:#222324;fill-opacity:1;fill-rule:nonzero;stroke:none"
         id="path128" />
      <path
         d="m 22717,11034.2 c 0,0 261.8,77.6 155.2,436.7 -106.7,359.1 -310.5,553.1 -310.5,553.1 0,0 543.4,-38.9 640.5,-456.1 97,-417.3 -29.2,-718.1 -223.3,-980.2 -194.1,-261.9 -194.1,-261.9 -194.1,-261.9 l -67.8,708.4"
         style="fill:#222324;fill-opacity:1;fill-rule:nonzero;stroke:none"
         id="path130" />
      <path
         d="m 24395.7,11992.5 c 0,0 -407.6,-240.1 -407.6,-487.6 0,-247.6 116.6,-313 116.6,-313 l -22,-858.8 c 0,0 -451.2,560.3 -422.1,1033.4 29.2,473.1 589.5,640.5 735.1,626"
         style="fill:#222324;fill-opacity:1;fill-rule:nonzero;stroke:none"
         id="path132" />
      <path
         d="m 25553,12167.2 c 0,0 291.1,-538.6 145.6,-997.1 -145.6,-458.6 -495,-313 -495,-313 l -14.6,-611.4 c 0,0 764.3,305.7 851.7,800.6 87.2,494.9 -349.4,997.1 -487.7,1120.9"
         style="fill:#222324;fill-opacity:1;fill-rule:nonzero;stroke:none"
         id="path134" />
      <path
         d="m 26026.1,11592.2 c 0,0 7.2,-727.8 276.5,-953.5 269.4,-225.7 997.2,-232.8 997.2,-232.8 0,0 -269.2,538.5 -349.3,655 -80.1,116.4 -80.1,116.4 -80.1,116.4 0,0 -582.3,-298.4 -844.3,414.9"
         style="fill:#222324;fill-opacity:1;fill-rule:nonzero;stroke:none"
         id="path136" />
      <path
         d="m 27430.8,12414.6 c 0,0 254.8,-72.7 400.2,-524 145.7,-451.2 196.7,-1200.9 196.7,-1200.9 0,0 429.3,342.1 181.9,931.6 -247.4,589.5 -291.1,858.8 -778.8,793.3"
         style="fill:#222324;fill-opacity:1;fill-rule:nonzero;stroke:none"
         id="path138" />
      <path
         d="m 21637.3,12720.3 c 0,0 334.8,-647.7 567.6,-735.1 233,-87.3 291.3,-80.1 291.3,-80.1 0,0 -218.4,145.6 -203.8,378.6 14.5,232.9 14.5,538.5 14.5,538.5 0,0 -560.4,-101.9 -669.6,-101.9"
         style="fill:#222324;fill-opacity:1;fill-rule:nonzero;stroke:none"
         id="path140" />
      <path
         d="m 24519.5,12836.8 c 0,0 87.4,-305.7 232.9,-393.1 145.6,-87.3 451.2,109.2 815.2,-72.8 363.9,-181.9 363.9,-181.9 363.9,-181.9 l -102,742.4 -1310,-94.6"
         style="fill:#222324;fill-opacity:1;fill-rule:nonzero;stroke:none"
         id="path142" />
      <path
         d="m 19776.5,11839.6 c 0,0 -436.8,-194.1 -533.8,-863.7 -97,-669.6 155.3,-1348.9 155.3,-1348.9 l -29.1,-77.7 c 0,0 -494.9,912.3 -485.2,1591.5 9.6,679.4 135.8,1028.8 524,999.6 388.2,-29.1 368.8,-300.8 368.8,-300.8"
         style="fill:#74747d;fill-opacity:1;fill-rule:nonzero;stroke:none"
         id="path144" />
      <path
         d="m 22435.4,11354.4 c 0,0 -339.6,-19.4 -271.6,-650.2 67.9,-630.8 213.4,-1416.7 155.2,-1494.5 -58.2,-77.6 -300.7,174.7 -485.2,805.5 -184.4,630.8 -184.4,1125.7 -9.7,1319.8 174.6,194.1 504.6,126.1 611.3,19.4"
         style="fill:#74747d;fill-opacity:1;fill-rule:nonzero;stroke:none"
         id="path146" />
      <path
         d="m 24774.2,11354.4 c 0,0 -320.2,-38.9 -184.3,-737.6 135.8,-698.7 184.2,-1339.1 145.5,-1407.1 -38.8,-68 -446.4,97 -533.7,912.2 -87.4,815.1 -262,1048.1 19.3,1203.4 281.5,155.3 553.2,29.1 553.2,29.1"
         style="fill:#74747d;fill-opacity:1;fill-rule:nonzero;stroke:none"
         id="path148" />
      <path
         d="m 27113,11830 c 0,0 640.6,-543.5 660,-1203.4 19.4,-659.9 -281.6,-1106.3 -281.6,-1106.3 0,0 -126.1,1086.9 -349.2,1329.5 -223.2,242.6 -339.8,514.3 -339.8,582.2 0,68 310.6,398 310.6,398"
         style="fill:#74747d;fill-opacity:1;fill-rule:nonzero;stroke:none"
         id="path150" />
      <path
         d="m 15545.4,25843.2 c 0,0 -553.2,-3493.6 873.4,-5822.8 1426.5,-2328.9 3231.5,-3144.2 3231.5,-3144.2 0,0 -2620.2,1805 -3144.3,4134.1 -523.9,2329.1 -145.5,5036.6 -465.7,5298.6 -320.3,262.1 -465.8,116.5 -494.9,-465.7"
         style="fill:#f03a4d;fill-opacity:1;fill-rule:nonzero;stroke:none"
         id="path152" />
      <path
         d="m 23930,23499.5 c 0,0 135.8,-1557.7 912.3,-2013.6 776.2,-456.2 805.4,-145.6 543.3,223.2 -262,368.8 -999.5,659.9 -1455.6,1790.4"
         style="fill:#f03a4d;fill-opacity:1;fill-rule:nonzero;stroke:none"
         id="path154" />
      <path
         d="m 26462.8,22291.2 c 0,0 116.6,-931.5 553.2,-941.2 436.7,-9.7 -77.6,698.7 -553.2,941.2"
         style="fill:#f03a4d;fill-opacity:1;fill-rule:nonzero;stroke:none"
         id="path156" />
      <path
         d="m 27802.1,22834.7 c 0,0 368.6,-892.7 941.2,-1193.5 572.7,-300.9 854,-77.8 495,223.1 -359,300.9 -1222.8,660 -1436.2,970.4"
         style="fill:#f03a4d;fill-opacity:1;fill-rule:nonzero;stroke:none"
         id="path158" />
      <path
         d="m 25114,20932.7 c 0,0 271.6,-815.2 1057.7,-1048.1 786.2,-232.9 543.5,533.7 543.5,533.7 0,0 339.6,-359 950.9,-194.1 611.5,165 640.6,640.5 640.6,640.5 0,0 271.7,-523.9 921.9,-533.7 650.2,-9.7 650.2,368.7 650.2,368.7 0,0 67.9,-1348.9 -262.1,-1649.7 -329.8,-300.9 -970.3,194.1 -970.3,194.1 0,0 203.8,-310.6 640.5,-417.3 436.7,-106.8 698.6,-145.6 853.9,407.7 155.3,553.1 194.1,1242.1 164.9,1785.5 -29.1,543.4 -261.9,1300.4 -261.9,1300.4 0,0 67.9,-1135.4 -553.1,-1242.3 -621.1,-106.5 -844.3,233.1 -1145.1,485.3 -301,252.4 -514.5,417.4 -514.5,417.4 0,0 -194,-1028.7 -688.9,-1077.2 -495,-48.5 -708.4,679.2 -708.4,679.2 0,0 -135.9,-426.9 -310.6,-650.1 -174.7,-223.3 -417.3,-184.4 -582.3,-116.4 -164.9,67.8 -426.9,116.4 -426.9,116.4"
         style="fill:#cd9418;fill-opacity:1;fill-rule:nonzero;stroke:none"
         id="path160" />
      <path
         d="m 14429.3,24591.3 c 0,0 -126.2,-368.9 -329.9,-388.3 -203.9,-19.4 -271.7,116.5 -271.7,116.5 l -29.1,-271.7 c 0,0 116.4,-339.6 349.3,-359.1 233,-19.4 145.6,-795.7 300.9,-1086.8 155.2,-291.3 291,-456.2 291,-456.2 0,0 -456.1,97.1 -572.4,-388.2 -116.6,-485.2 688.9,-679.4 688.9,-679.4 0,0 -427,-582.1 -242.6,-960.6 184.4,-378.5 291.2,-475.5 291.2,-475.5 l 834.6,883 c 0,0 -533.9,1514 -630.9,2086.6 -96.9,572.5 -116.4,1086.8 -116.4,1086.8 0,0 -155.2,-97 -329.9,262.1 -174.7,359 -233,630.8 -233,630.8"
         style="fill:#cd9418;fill-opacity:1;fill-rule:nonzero;stroke:none"
         id="path162" />
      <path
         d="m 12648.5,20413.5 c 0,0 -480.3,276.6 -393,800.6 87.3,524 451.3,465.8 451.3,465.8 0,0 -276.6,524 14.6,917 291.1,393.1 378.4,393.1 378.4,393.1 0,0 -451.3,742.4 -58.2,1339.3 393.1,596.7 -145.6,2023.3 -684.2,2096.1 -538.6,72.7 -596.8,-14.6 -596.8,-14.6 0,0 116.5,393.1 553.2,334.9 436.7,-58.4 946.2,-800.7 1280.9,-1557.6 334.9,-757 101.9,-1135.4 101.9,-1135.4 0,0 -436.6,145.5 -436.6,-160.2 0,-305.7 407.6,-1368.3 407.6,-1368.3 0,0 -451.3,-131 -524.1,-465.8 -72.8,-334.7 189.2,-786.1 189.2,-786.1 0,0 -756.8,102 -684.2,-858.8"
         style="fill:#252d62;fill-opacity:1;fill-rule:nonzero;stroke:none"
         id="path164" />
      <path
         d="m 19626,17443.7 c 0,0 1480,-1295.4 3255.9,-1266.3 1775.9,29.3 2620.1,3551.9 2620.1,3551.9 0,0 728.4,-745.7 1019.2,-1081.1 291,-335.7 1144.9,-1713.7 1144.9,-1713.7 0,0 -1145.1,-1455.7 -1397.5,-2018.6 -252.1,-562.8 -252.1,-737.4 -252.1,-737.4 l -601.8,-116.6 -1062.6,878.3 c 0,0 -664.7,-470.6 -1285.8,-334.8 -621.2,135.8 -2591.4,1464.9 -3440.3,2838.3"
         style="fill:#9f1d21;fill-opacity:1;fill-rule:nonzero;stroke:none"
         id="path166" />
      <path
         d="m 21513.6,29530.8 c 0,0 669.6,-1460.6 1077.1,-2246.5 407.7,-786.2 582.2,-1091.8 451.3,-1310.2 -131,-218.3 -672.6,700.3 -714.8,743.2 -42.2,42.9 394.5,-1238.1 685.7,-1267.2 291.1,-29.2 451.2,1164.5 451.2,1164.5 0,0 742.4,-480.4 1310.1,-567.7 567.8,-87.4 625.9,291.1 480.4,538.6 -145.6,247.5 -276.5,436.7 -276.5,436.7 0,0 815.1,-174.7 1295.5,116.5 480.3,291.1 509.5,625.9 509.5,625.9 0,0 -1135.5,291.1 -1514,844.2 -378.5,553.3 -771.4,2183.6 -582.1,2693.1 189,509.5 232.8,625.9 232.8,625.9 0,0 -960.7,-902.6 -1062.6,-1877.8 -101.9,-975.3 742.3,-1979.8 742.3,-1979.8 0,0 -1004.4,145.6 -1542.9,407.6 -538.7,262 -1543,1053 -1543,1053"
         style="fill:#9f1d21;fill-opacity:1;fill-rule:nonzero;stroke:none"
         id="path168" />
      <path
         d="m 21921.2,38289 c 0,0 -1446,-499.8 -1950.7,-810.3 -504.6,-310.6 -669.6,-407.5 -669.6,-407.5 l 718.1,164.9 c 0,0 -300.8,-621.1 -834.5,-1145.2 -533.7,-524 -601.7,-543.4 -601.7,-543.4 l 582.3,155.2 c 0,0 -873.4,-1969.8 -1271.3,-3037.4 -397.8,-1067.5 -470.7,-2193.1 -1067.4,-2760.9 -596.9,-567.7 -1091.8,-815.2 -1091.8,-815.2 0,0 582.2,-58.2 1135.4,131.1 553.1,189.2 553.1,189.2 553.1,189.2 0,0 -815,-1019.1 -727.8,-1295.6 87.3,-276.5 1251.9,-58.2 1251.9,-58.2 0,0 -1295.5,-582.3 -1659.5,-655.1 -363.9,-72.8 -567.7,-14.5 -422.1,378.6 145.5,393 363.9,727.8 363.9,727.8 0,0 -989.8,291.1 -1164.5,363.9 -174.7,72.8 -174.7,72.8 -174.7,72.8 0,0 1339.2,844.2 1717.8,1644.9 378.4,800.6 1004.3,3085.9 1368.2,3813.8 363.9,727.9 480.3,815.1 480.3,815.1 l -684.1,203.8 c 0,0 1004.4,669.6 1150,888 145.5,218.4 232.9,305.7 232.9,305.7 l -858.8,131 c 0,0 582.2,538.7 1470.2,1019 888,480.3 2154.4,524 2154.4,524"
         style="fill:#f03a4d;fill-opacity:1;fill-rule:nonzero;stroke:none"
         id="path170" />
      <path
         d="m 18228.6,28264.9 c 0,0 -441.5,-966.1 -276.6,-1286.3 165,-320.3 1087,-232.9 1087,-232.9 0,0 -1591.6,-679.4 -1630.5,-359.1 -38.8,320.2 820.1,1878.3 820.1,1878.3"
         style="fill:#f03a4d;fill-opacity:1;fill-rule:nonzero;stroke:none"
         id="path172" />
      <path
         d="m 19456.3,26968.8 c 0,0 -271.9,-1086.8 213.3,-1222.8 485.3,-135.9 796,126.2 980.3,368.8 184.4,242.6 248.6,472 248.6,472 0,0 -762.9,-501.1 -1025,-258.5 -262,242.7 -417.2,640.5 -417.2,640.5"
         style="fill:#f03a4d;fill-opacity:1;fill-rule:nonzero;stroke:none"
         id="path174" />
      <path
         d="m 19752.2,35246.7 c 0,0 -160.1,-1470.2 -43.7,-2096.2 116.5,-625.9 -349.3,-480.3 -349.3,655.1 0,1135.4 393,1441.1 393,1441.1"
         style="fill:#fef2bb;fill-opacity:1;fill-rule:nonzero;stroke:none"
         id="path176" />
      <path
         d="m 19203.9,32752.7 c 0,0 514.4,-1019 1145.1,-941.3 630.9,77.5 941.4,776.3 941.4,776.3 0,0 67.9,-388.1 -135.9,-834.6 -203.9,-446.4 -446.5,-553.2 -708.4,-388.3 -262,165.1 -1106.3,689.1 -1242.2,1387.9"
         style="fill:#9b764f;fill-opacity:1;fill-rule:nonzero;stroke:none"
         id="path178" />
      <path
         d="m 22260.8,32655.6 c 0,0 -1426.5,87.3 -1969.9,-116.4 -543.5,-203.9 -601.7,-281.5 -601.7,-281.5 0,0 116.3,339.6 523.9,514.3 407.7,174.7 1106.4,330 1611,252.4 0,0 223.2,524 233,1290.7 9.5,766.6 106.7,1251.8 -97.2,1543 -203.8,291.1 -533.7,242.6 -533.7,242.6 0,0 543.4,271.7 815.2,-368.8 271.8,-640.5 -29.1,-2426.2 97.1,-2649.3 126.1,-223.2 213.4,-427 -77.7,-427"
         style="fill:#9b764f;fill-opacity:1;fill-rule:nonzero;stroke:none"
         id="path180" />
      <path
         d="m 20531.1,36382.1 c 0,0 385.6,655 1040.7,662.3 655.1,7.4 1128.1,-640.4 836.9,-582.2 -291,58.2 -909.6,815.1 -1877.6,-80.1"
         style="fill:#fef2bb;fill-opacity:1;fill-rule:nonzero;stroke:none"
         id="path182" />
      <path
         d="m 22852.8,35967.3 c 0,0 -233,1186.3 -924.4,1259.1 -691.5,72.7 -1361,-254.7 -1586.6,-691.4 -225.6,-436.7 -298.5,-844.3 -298.5,-844.3 0,0 182,1171.8 771.5,1586.6 589.6,414.9 1892.4,356.6 2307.3,-109.2 414.8,-465.7 0,-1026.2 -196.5,-1630.3 -196.6,-604.1 -174.7,-705.9 -174.7,-705.9 0,0 160.1,931.6 101.9,1135.4"
         style="fill:#9b764f;fill-opacity:1;fill-rule:nonzero;stroke:none"
         id="path184" />
      <path
         d="m 24687,36964.4 c 0,0 2430.9,-87.3 2984,-2125.3 553.1,-2037.9 -480.4,-4090.4 -480.4,-4090.4 0,0 -625.9,1950.6 -2139.9,2154.4 -1513.8,203.8 -2974.2,-1596.4 -2974.2,-1596.4 0,0 174.5,-1649.8 747.2,-2173.8 572.6,-524.1 572.6,-524.1 572.6,-524.1 0,0 -873.5,368.8 -1426.6,912.3 -553.2,543.5 -824.9,931.7 -824.9,931.7 0,0 -87.5,-524.1 689,-1184 776.4,-660 1436.3,-844.3 1795.3,-980.2 359,-135.8 795.7,-155.3 795.7,-155.3 0,0 -1329.4,1038.4 -1659.3,1640 -330,601.8 -417.3,1319.9 -417.3,1319.9 0,0 1154.7,1116.1 1698.2,1261.6 543.5,145.6 1426.6,252.3 1805.1,-271.8 378.5,-524 1455.6,-2154.3 1455.6,-2154.3 0,0 1135.4,1581.9 1290.6,3386.8 155.4,1805 -756.9,2814.2 -1513.8,3241.3 -756.9,427 -1669.2,659.9 -1669.2,659.9 l -727.7,-252.3"
         style="fill:#d99e5d;fill-opacity:1;fill-rule:nonzero;stroke:none"
         id="path186" />
      <path
         d="m 23231.3,32844.9 c 0,0 247.4,2430.9 873.4,3187.9 625.9,756.9 -553.2,-2562 -873.4,-3187.9"
         style="fill:#fef6e9;fill-opacity:1;fill-rule:nonzero;stroke:none"
         id="path188" />
      <path
         d="m 22328.7,29526 c 0,0 -829.6,509.4 -975.2,960.6 -145.7,451.3 611.3,14.6 975.2,-960.6"
         style="fill:#fef6e9;fill-opacity:1;fill-rule:nonzero;stroke:none"
         id="path190" />
      <path
         d="m 19082.6,34460.7 c 0,0 -160.1,-1329.6 -63.1,-1950.7 97,-621.1 456.1,-960.7 456.1,-960.7 0,0 -601.7,-97.1 -873.4,77.6 -271.6,174.7 -271.6,174.7 -271.6,174.7 0,0 562.7,-854 1125.7,-1018.9 562.8,-165 1455.6,-1222.8 2183.5,-1843.9 727.8,-621 883,-659.9 883,-659.9 0,0 -1067.5,951.1 -1300.4,1620.6 -232.9,669.6 -155.2,1591.6 -155.2,1591.6 0,0 -291.2,-213.6 -465.9,-194.1 -174.5,19.5 -1145.2,562.8 -1358.6,1319.7 -213.5,757 -160.1,1844 -160.1,1844"
         style="fill:#9f1d21;fill-opacity:1;fill-rule:nonzero;stroke:none"
         id="path192" />
      <path
         d="m 17822.7,22360.6 c 0,0 -190.8,-942.8 61.3,-1427.9 252.5,-485.2 902.5,-194.2 902.5,-194.2 0,0 68,-747.1 1203.5,-853.9 1135.4,-106.7 960.7,941.4 960.7,941.4 0,0 388.2,-834.7 941.2,-718.2 553.2,116.4 10,1731.6 10,1731.6 0,0 77.5,-935.8 -436.8,-897 -514.4,38.8 -805.4,698.8 -805.4,698.8 0,0 -232.9,-970.5 -524.1,-1048.2 -291.1,-77.6 -660,494.9 -776.4,892.9 -116.5,397.8 -155.3,543.4 -155.3,543.4 0,0 -446.3,-1009.3 -854,-921.9 -407.6,87.2 -527.2,1253.2 -527.2,1253.2"
         style="fill:#9f1d21;fill-opacity:1;fill-rule:nonzero;stroke:none"
         id="path194" />
      <path
         d="m 30407.5,10725.1 c -832.1,-277.2 -1702.2,-530.1 -2537.1,-691.6 59.8,149.2 105.6,295.1 139.8,433.5 283.7,182.6 412.7,481.7 410.6,790.8 -0.4,137.1 -23.8,277.5 -66.3,416.5 125.6,23.9 389.3,75.4 675.7,137.8 400.7,88.4 830.7,190.1 1024.3,284.9 49.5,25 86.4,32.5 112.5,32.5 40.6,-1.4 64.2,-13 100.6,-55.3 52.7,-63.2 99.7,-199.4 124.5,-361.1 26.1,-161.5 35,-348 34.9,-518.1 0,-199.2 -11.8,-375.2 -19.5,-469.9 z M 27537.6,9600.3 c -24.8,114.9 -30.4,568.7 -71.8,711.8 -113.2,377.2 -268.2,799.1 -551.8,996.1 -22.6,17.2 -28.6,27.1 -30.9,68 -3.7,79.4 75.4,241.1 201.8,363.7 122.9,124.4 284.8,211.4 409.7,211.4 h 4.8 c 71.3,-0.9 131.4,-21.2 193.9,-80.7 61,-59.2 123,-163.8 167.3,-332.6 1.2,-9 3.9,-30.5 6.9,-65.5 4,-47.9 8.3,-118.4 8.2,-206.7 0.1,-303.3 -75.8,-1132.1 -338.1,-1665.5 z m -2485.4,131.4 c 52.5,121.6 103.3,254.9 144.7,394.8 241.5,56.1 422.3,145 561.3,276.9 114.7,108.9 197,241 269.7,395.4 25,-44.5 55.2,-91.4 92.4,-138.9 156.9,-203.7 446.1,-407.8 903.1,-407.8 h 6.5 c 65.5,0 134.7,4.3 207.1,12.7 1.6,-5.9 3.5,-11.7 5.1,-17.5 26.9,-92.7 50,-183.1 69.5,-266.4 -763.4,-122.2 -1520.3,-202.5 -2259.4,-249.2 z M 26070,6401.4 c -120.6,-457.2 -246.3,-847.5 -373.7,-1141.6 -125.6,-294.3 -260.8,-490 -363.1,-555.1 -84.5,-56.4 -149.8,-75.2 -196.8,-75.1 -70.7,0.8 -132.3,37.6 -204.4,151.6 -104.7,168 -184.2,482.5 -229.5,860.5 -46.4,378.6 -63.5,822.7 -63.5,1265 0,572 28.4,1141.4 56.9,1567.1 23.3,350.8 46.7,602.6 54.2,681 31.3,50.2 105.1,171 189.2,336.4 582.8,34 1177.5,88.8 1778.5,167.8 -192.7,-1210 -411,-2362.3 -647.8,-3257.6 z M 24223.7,10844 c -1.4,186.9 44.9,311.5 101.5,357.2 78.7,68.6 167,91.3 262.6,92 h 1.4 c 94.2,0 190.9,-25.9 262.6,-53 36,-13.5 65.6,-27 85.7,-37 2.3,-1 4.4,-2.1 6.3,-3.1 83.7,-133.5 118.9,-292.6 119.1,-468 0.8,-327.5 -128.2,-701.5 -260.6,-988.6 -57.1,-124.4 -110.2,-429.1 -156.7,-512 -256.9,501.1 -423.4,1249.4 -421.9,1612.5 z m 140.5,-2888.2 C 24215.8,6830.1 23975.1,5141 23699.6,3736.6 23562,3034.9 23415.4,2403.7 23269.3,1954.1 c -72.7,-224.3 -146,-403.8 -213.2,-518.8 -33.2,-57.5 -65.2,-98.3 -88.8,-119.5 -11.8,-10.7 -21,-16.5 -26.1,-18.8 -4.9,-2.3 -5,-1.6 -5,-1.9 -0.2,0.1 -0.2,0 -0.2,0 -0.4,-0.2 -1.4,-0.4 -6.5,3.6 -147,91 -319.3,425.5 -448.1,867.1 -199,662.8 -337.4,1562.1 -424.2,2292.4 -77.2,647.5 -114.5,1160.5 -122.1,1270.1 80.3,184.3 142,409.2 193.7,659.8 216.3,1062.6 225.9,2564.8 226.5,2794.2 50.7,90.8 98.5,183.3 143.2,276.8 282.6,-8.6 570.5,-13.4 863.2,-13.4 328.8,0 664,6.7 1003.4,19 47.1,-99.9 97.6,-198.6 151.7,-295.5 -14.9,-126.3 -68.8,-579.2 -152.6,-1213.4 z M 21796.7,6023 c -51.5,-163.5 -111.4,-297.4 -173.6,-384.8 -63.1,-89.1 -119.6,-123.6 -167.7,-128.6 0,0.1 -0.1,0.1 -0.1,0 0,0 -0.1,0 -0.2,-0.1 -0.5,0.1 -2.1,0.4 -8.1,4.5 -38.5,17.5 -130.9,164.7 -203.2,399.8 -222.9,685.7 -413.2,2088.6 -556.5,3654.8 404.3,-36.7 827,-66.7 1264.6,-88 75,-145.1 139.9,-252 170.5,-301.4 -0.4,-178 -7.3,-1068.7 -100.9,-1935.1 -48.4,-449.9 -121.1,-893.8 -224.8,-1221.1 z m -2249,3905.7 c 23.9,106.6 54.1,229.2 91.2,355.5 72.1,-8.3 141.2,-12.7 206.6,-12.7 h 6.5 c 457.1,0 746.3,204 903.3,407.8 37.1,47.5 67.3,94.6 92.4,139 72.6,-154.5 155,-286.4 269.7,-395.5 139,-132 319.9,-220.8 561.4,-276.9 45,-152.1 101,-296.4 158.5,-426.2 -826.7,43.8 -1597.5,119.1 -2289.6,209 z m -137.9,402.8 c -41.4,-143.2 -57.4,-558.1 -82.2,-673 -262.3,533.5 -327.8,1323.3 -327.8,1626.7 0,88.4 4.3,158.9 8.3,206.6 2.8,35.3 5.8,57 6.9,65.8 44.3,168.9 106.1,273.4 167.2,332.5 62.3,59.4 122.6,79.9 193.7,80.7 125.6,2.2 290.1,-85.4 414.6,-211.6 126.5,-122.5 205.5,-284 201.8,-363.6 -2.3,-41.1 -8.3,-50.9 -30.8,-68 -283.6,-197.1 -438.5,-618.6 -551.7,-996.1 z m -3227.2,271.8 c -179,63 -284.3,164.2 -354.6,295.5 -69.5,131.2 -98.9,296.9 -98.7,473.3 -0.2,257.4 61.8,533.7 125,743 31.6,104.6 63.1,192.9 86.6,254.3 0.8,2 1.5,4 2.2,5.9 172.3,-50.8 566.1,-174.4 1020.4,-298.5 506.8,-138.4 1094.1,-279.4 1574.5,-329.9 -53.5,-156.3 -82.8,-315.1 -83.2,-469.6 -2.4,-309.1 126.6,-608.1 410.5,-790.6 38.1,-154.7 90.7,-318.4 161.3,-486 -1470.7,217.4 -2512.1,487.4 -2844,602.6 z m 2848.7,1565.1 c 132.5,168.9 310.6,228.4 526.5,229.8 261.5,1 561.7,-100.3 792.1,-204.7 115.5,-51.9 213.6,-104.1 282.5,-143 68.9,-39 106.7,-63.6 107,-63.6 l 115.8,-75 54.6,126.9 c 137.1,319.9 196.5,576.1 222.3,739.6 185.3,-81 418.8,-151.5 675.1,-152.9 2.1,-0.1 4.1,-0.1 6.1,-0.1 138.3,0 283.3,22.9 427.5,76.7 -13.7,-84 -24.3,-180.1 -24.5,-278.4 1,-153.6 23.5,-317.8 125.2,-449.8 l 31.3,-39.9 50.5,-4 c 277.2,-23.8 451.3,-114.1 560.1,-231.6 108.4,-117.7 157.6,-271.1 158,-441.8 2.2,-251.3 -114.7,-529.7 -286.3,-719.1 18.7,115 29.3,224.7 29.7,325.9 -1.3,216.6 -42.7,407.8 -181.1,532.5 -128.4,112.8 -281.5,150.3 -416,149.6 -270,-1.8 -486.8,-132.9 -495.7,-136.6 l -22.6,-13.1 -14.7,-21.6 c -128,-186.8 -175.2,-404.9 -175.1,-622.6 0.8,-115.4 14.1,-232 35.8,-347 -149.4,47 -254.2,108.5 -337.8,187.4 -116.6,109.9 -200.5,265.6 -289.2,487.8 -24.9,62.4 -25.8,122.5 -35.3,179.9 -72.8,436.7 407.1,961.5 407.1,961.5 -4.7,-3.3 -157.7,-102.6 -314.7,-268.7 -155.4,-166.3 -323.3,-402.3 -325.4,-692.8 0,-40.8 3.9,-82.2 11.4,-124 l -4.3,1 c 0,0 -1.2,-5.7 -5.7,-22.3 -16.1,-58.2 -70.8,-214.7 -200.8,-350.8 -130.8,-135.7 -330.9,-257.9 -675.2,-259.2 -42.2,0 -86.6,1.9 -133.1,6 3.2,9.3 6.2,18.6 9.6,27.6 96.7,268.7 234.5,510.3 368.9,595.8 92.4,59.5 136.6,166.2 134.4,261.8 -3.9,188.2 -117.2,372.6 -270.3,528.7 -155.2,153 -357,277.2 -579.1,279.6 -124.3,0.7 -253.7,-46.1 -356.2,-146.9 -102.9,-100.6 -180.2,-247.7 -232,-447.8 l -1.2,-5 -1.1,-6.2 c -0.6,-5 -18.4,-121.4 -18.4,-312.8 0,-110.8 6.4,-247.3 25.2,-401.1 -70,112.3 -103.2,244.2 -104.5,393.2 -0.7,281.5 125.9,612.2 343.6,891.1 z m 1381.1,1714.7 c -1.6,3.6 -2.9,6.7 -4.4,10.2 -23.2,570 -38.8,1089.3 -46.3,1525.6 168.1,-463.5 367.7,-1145.1 366.7,-1755.9 0,-108.9 -7.3,-215.1 -20.7,-317.4 -61.4,80.9 -126.9,187.5 -177.8,289.7 -48,92.5 -88.9,182 -117.5,247.8 z m 295.2,-858.2 3.5,-2.9 c 3.8,-2 77.7,-60.8 201.2,-132.3 -13.1,-115.1 -51.6,-337.6 -166.6,-636 -66.3,37.5 -157,86.3 -264,136 -18.4,322.7 -34.8,639.4 -49.1,945.9 76.8,-125.4 165.3,-240.2 275,-310.7 z m -5651.9,11476.8 c 0,66.1 0.6,131.6 1.9,196.4 19,1033.6 230.1,1985.1 436.8,2676.5 103.2,345.7 205.1,626.7 281.3,820.4 51.3,131.2 90,220.5 109.8,265.3 68.6,-7.6 137.6,-12.3 205.8,-12.4 22.6,0 45.2,0.4 67.6,1.3 -39.9,-64 -84.9,-138.4 -129.9,-217.5 -68,-119.9 -136.5,-250.7 -189.3,-376.3 -52.1,-126.5 -91.2,-244.4 -92.3,-357.5 0.2,-58.1 11.3,-121.2 54,-176 42.6,-55.7 113.2,-85.1 180.1,-88.5 11.9,-0.7 23.8,-1.1 35.8,-1.1 279.5,3.6 758.3,174.9 1194.9,343.2 191.8,75.1 372,149.9 512.8,210.1 -39.6,-84.7 -84,-183.2 -128.6,-288.6 -134.1,-321 -272.2,-693.8 -274.6,-971.5 0.5,-86.1 12.7,-168.9 61.7,-242.4 48.6,-74.9 143.2,-119.9 236.2,-117.2 47.9,0 97,8.6 149.3,24 391.6,116 792.6,225.2 1110.5,332.5 154,52 288.7,103.4 396.9,157 -8.4,-74 -14.4,-156.6 -14.5,-243 0.2,-141.9 15.8,-294 69.1,-436 52.5,-141.4 148.5,-275 301.5,-355 93.5,-49.5 192.2,-71.4 287.7,-71.2 297.6,3.4 552,191.8 741.5,365.8 78.6,73.6 145.6,146.2 197.3,206.6 62.9,-118.7 156.3,-288.1 262.8,-458.6 97.4,-155.9 205.3,-312.4 314.9,-435.4 112.2,-119.5 214.3,-221.8 369.1,-229.6 1.9,0 3.7,0 5.4,0 91.4,0 176.9,63.6 218.6,144.3 165.9,296 294.9,670.2 370.9,920 41.2,-69 89.5,-146.6 142.3,-224.5 80.5,-118.8 170.8,-238.7 266.3,-334 96.6,-92.8 194.1,-173.4 330.5,-177.9 43.8,-0.4 89.7,11.8 128.8,35.3 163.5,106.8 213.1,298.8 252.2,496.7 33.1,186.7 41.4,386.3 42.5,536.9 92.7,-64.1 213.1,-143.4 348.1,-223.2 308.9,-179.9 685.1,-367.1 1017.5,-370 86.1,0 170.7,13.6 249.1,48.4 177.6,73.5 264.3,240.4 258.8,392.9 -2.5,211.8 -112.4,417.7 -214.5,582.8 -10.2,16.2 -20.5,31.8 -30.4,46.9 113.4,-13.4 252.3,-24.5 402.6,-24.5 272,0.3 582.8,35.2 851.2,168.3 167.7,81.8 317.9,208.7 420.6,384.8 9.3,-7.9 19.2,-15.9 29.7,-24.7 539.2,-446.9 2399.3,-2151.7 3075,-4789 -5.1,-162 -21.5,-435.9 -72.9,-703 -35,-183.8 -87.2,-363.9 -159,-497.8 -72.8,-135.5 -158.9,-216.4 -258.4,-235.7 -48.4,-9.6 -96.7,-14.1 -145,-14.1 -339.9,-2.3 -695.1,233.5 -959.7,479.7 -132.3,122.1 -242.3,245.2 -318.7,337.3 -76.5,91.9 -118.2,151.6 -118.5,151.6 l -158.6,225.1 v -275.4 c 0,-0.1 0,-37.7 -7.8,-105.8 -22.8,-205.1 -118.9,-650.5 -482.6,-931.6 -62.7,-48.1 -116.4,-64.3 -169.4,-64.8 -157.3,-7.3 -361,190.4 -505.2,410.7 -72.9,108.2 -133.2,217.9 -175,299.7 -41.8,81.9 -64.4,135 -64.6,135.1 0,0 -219.6,-702 -315,-798.5 -95.6,-96.2 -224.2,-137.8 -361.2,-138 -203.4,-1.9 -415.9,100.4 -498.3,216.3 l -14.9,-10.9 -2.2,47.3 -101.6,8.4 c 0,0 -1,0 -7.7,1.1 -52.2,7.2 -297.9,94.7 -595.9,328.2 -570.7,447.5 -745,2125.1 -745,2125.1 -10.7,-146.6 -15.5,-285.2 -15.5,-416.2 -1.3,-1047.7 286.9,-1610.8 656.8,-1932.1 235.5,-204.7 461,-290.2 588.1,-320.6 60.4,-613.7 410,-1138.2 757.4,-1529.2 183.2,-205.3 367,-374.4 512.5,-499.4 72.7,-62.5 135.7,-114 183.7,-153.1 7.4,-6.1 14.2,-11.5 20.8,-16.9 23.1,-25.4 51.3,-54.9 83.6,-86.8 14.4,-25.7 34.4,-62.8 56.4,-106.2 144.2,-281.1 429.9,-872.5 786.9,-1397.6 62.8,-92.3 128.1,-182.5 195.1,-269 -113.6,-140.9 -368.7,-459.8 -641.9,-820.3 -368.7,-488.6 -766.1,-1041.3 -904.1,-1363.1 -146,-345.6 -178.8,-754.9 -179.2,-1081.1 0,-205.8 13.8,-378.5 24.1,-478.7 -6.2,-2.1 -12.8,-4.5 -19.5,-6.9 -196.4,-69.6 -643.9,-207.8 -992.4,-206.9 -137,-0.4 -255.9,21.8 -333.9,65.1 -77.5,44.9 -121.3,97.3 -140.2,205.7 -22.1,143.6 -31.3,301.2 -31.3,460.8 0,319.2 36.5,646.1 73.4,892.1 24.2,162.6 48.2,288.6 61.8,355.6 331.8,234.8 654.1,531 941.1,819.5 559.1,566.5 785.1,1251.1 785.1,1251.1 -0.3,-0.2 -100.1,-132.1 -269.4,-334.9 -254.3,-304.3 -663.7,-765.5 -1113.8,-1163.5 -448.6,-399.1 -944.4,-729.7 -1336.2,-785.7 -27.1,-4.1 -55.9,-6.1 -86.4,-6.1 -118.7,-1.1 -263.3,32.5 -423.9,93.5 0.9,5.5 1.6,9.1 1.5,9.1 l -47.6,8.8 c -180.3,73 -379.3,178.9 -584.5,308.7 -616.3,386.5 -1298.2,974.2 -1823,1464.1 -262.5,245.1 -486.4,465.7 -644.1,625 -157.9,159.2 -249.1,256.2 -249.2,256.4 0,0 493.2,-863.9 1310,-1569.1 408.6,-352.7 855.9,-706 1282.6,-973.7 170.2,-106.2 336.4,-199.4 496.9,-273.6 -33.2,-240.3 -86.7,-704.4 -124.9,-1408.3 -256.2,-276 -524.7,-359.1 -783.4,-360.6 -250.3,-0.3 -491,85.5 -667.6,173.5 -88.4,43.9 -160.7,87.9 -210.1,120.7 -5.5,3.5 -10.7,6.9 -15.6,10.3 33.3,161.2 47.3,329.5 47.3,500.1 -2.2,1135.1 -614.3,2404.1 -616.3,2411.8 l -16.9,35.3 -34.5,17.9 c -4219.7,2197.1 -5234.2,5679 -5237.8,8373.7 z m -1202.2,-5023.2 c -65.6,0 -132.2,2.8 -199.7,7.5 l 6.6,13.2 v 0.1 c 0,0.1 -58,29 -148.2,84.6 -275.2,164.6 -804.5,572 -795.7,1020.4 0,50.3 6,101.7 19.2,154.2 41,167.5 185.6,268.9 335.9,329 74.1,29.5 146.9,47.7 200.2,58.1 53.5,10.4 85.1,12.8 85.2,13 l 150.5,12.5 -86,124.3 c 0,0 -12.2,17.5 -32.4,51.4 -61.1,101.1 -181.6,339.9 -180.2,554.4 0.3,107.4 27,205.4 99.5,290.9 72.6,85.4 197.3,163.1 409.6,210.5 l 111.1,24.6 -52.6,100.8 c -0.3,0.5 -107.4,207 -215.3,471.2 -108.1,263 -213.4,587 -212.1,793.5 -0.4,78.7 15.6,135.8 37.3,165.1 22,28.3 45.9,45 114.4,46.7 38,0.2 88.8,-8.1 151.3,-27.3 -7.6,-47.8 -16.2,-95.4 -27.5,-142.7 0,0 276.6,219.9 282.7,357.1 46.4,-14.5 98.9,-25.2 157.3,-25.9 124,-2.8 262.4,54.6 372.7,199.1 16.6,-72.1 37.3,-153.6 62.6,-235.6 37.3,-121.1 83.5,-243.3 144.1,-341.8 51.7,-82.9 118.1,-160.7 216.1,-182 81.6,-963.5 305.8,-1994.3 752.1,-3012.5 -409.1,-825.4 -1014.9,-1109 -1758.7,-1114.4 z m -940.5,133.1 c -332.3,84 -763,377.4 -1204.2,776.9 -664,598.5 -1362,1429.5 -1893.76,2124.7 -265.99,347.8 -490.87,661.8 -649.93,895.9 -79.44,116.9 -142.6,214 -185.53,284.3 -21.35,34.9 -37.92,63.6 -48.29,83.2 0,0.1 -0.09,0.2 -0.19,0.4 10.56,37.2 28.43,99.7 52.72,178.6 60.52,195.8 160.2,490.8 274.66,730.2 56.95,119.4 118.13,225.1 174.51,293.8 56.58,71.5 105.04,91 110.78,87.7 4.24,-0.7 11.39,1 35.96,-22.3 175.93,-175.8 661.77,-616.4 1105.37,-1069.3 221.3,-225.9 431.3,-454.4 583.2,-649.6 75.7,-97.4 137,-186.4 177,-259.9 41,-72.6 57.1,-131.4 55.7,-150.7 0,-1.2 0,-2.1 0,-2.8 -1.7,-0.6 -4.2,-1.4 -7.8,-2.4 -62.1,-17.8 -140.4,-27.4 -228.7,-27.4 -274,-0.7 -640.2,93.8 -947.7,255.4 -309.6,160.7 -554.17,389.4 -620.64,624.4 0,0 173.4,-651.7 512.74,-830.7 341.2,-178 731.6,-281.2 1055.6,-282.1 105.1,0 203.5,11.1 292.8,36.5 48.9,13.6 97.3,41 130.6,84.7 33.3,43.5 46.3,96.9 46.1,144.4 -1.5,90.2 -35.8,172 -84.5,262.6 -172.1,311.4 -570.2,734.8 -967.8,1131.4 -396.4,394 -792.01,754.7 -937.43,900.2 -53,54.3 -125.28,91.1 -200.5,90.4 -25.13,-0.2 -48.55,-4.1 -70.86,-10.2 -71.17,99.4 -446.37,627 -830.01,1202.5 -212.83,319.2 -427.82,652.7 -593.38,933.4 -165.37,276.9 -281.81,517.8 -291.14,593.2 -3.75,22.5 -5.45,43.5 -5.45,62.6 1.14,89.2 31.9,145.1 86.12,190.2 54.78,44.5 140.44,73.8 245.5,73.7 137.78,0.3 304.67,-50.7 459.52,-167 219.4,-164 647.01,-580.6 1044.79,-1036.6 398.63,-454.6 884.84,-1167.3 896.24,-1280.4 11.5,469.3 -359.1,1072.1 -359.1,1072.1 -0.2,0.9 -77.6,434.2 -155.17,991.1 -77.65,556.5 -155.02,1236.6 -154.73,1716.5 -0.29,175.2 10.72,324.2 32.55,422.9 10.55,49.2 24.29,85.5 35.03,103.3 3.56,5.8 6.38,9.7 8.27,11.6 23.25,6.1 48.28,9.5 75.31,9.5 159.74,1.9 433.34,-127.4 735.24,-705.3 292.2,-559.5 598.3,-1526.3 843.6,-3120.1 -196.1,-246.9 -391.1,-471.9 -554.3,-682.9 -226.3,-295.7 -401.4,-564.8 -404.4,-858.8 0,-33.2 2.4,-66.7 7.7,-100.4 37.1,-273.3 276.5,-459.9 570,-453.8 254.1,1.8 553.7,116.9 870.6,374 -150,-373.1 -296.2,-861.3 -297.6,-1350.5 0,-218.8 29.7,-438.7 104.5,-648.1 l 219.3,78.4 c -64,179 -91.1,372 -91.1,569.7 -0.4,454.6 394.4,2025 394.4,2025 -472.1,-603 -924.7,-818.3 -1200.1,-815.5 -209.2,6.2 -310.2,95.7 -340,256.7 -3.2,21.4 -4.8,42.5 -4.9,64.5 -3,189.3 133.7,431.8 355.8,716.3 167.1,216.3 377.1,456.7 590.2,728.1 l 29.4,4.3 c -1.3,9.6 -2.8,18.9 -4.2,28.4 59.4,76.2 118.8,154.4 177.6,235.8 56.4,74.8 113.5,100.6 201.1,102.7 110.7,1.3 270.2,-61.3 438.2,-186.9 509.6,-373.3 1072.7,-1273.4 1068.8,-2156 0,-47.2 -2.1,-94.2 -5.2,-141.1 -62.1,16.8 -119,26.1 -171.1,26.2 -107.2,1.7 -202.8,-42.5 -256.4,-119.5 -53.6,-76.1 -69.6,-168.5 -70.1,-267 1.3,-257.4 114.7,-586 225.2,-859.4 65.5,-160.7 130.8,-300.4 173.4,-388.3 -180.2,-54.8 -310.3,-137 -397.6,-239.6 -103.9,-121.9 -141.6,-267.4 -141.2,-404.2 2.1,-237.2 103.2,-460.8 174.5,-590.4 -57.1,-12.3 -127.6,-31.6 -201.6,-61 -173,-68.7 -377.8,-200.4 -440.7,-448.9 -16.7,-66.4 -24.5,-132.4 -24.5,-196.6 2.4,-388.2 272.2,-698.7 527.1,-915.9 69.3,-58.6 138.2,-110.3 202,-155 -117.5,20.8 -236.8,47 -357.9,78.2 z m 747,5819.1 c 55.6,898.2 489.3,1694.7 927.3,2265.5 218.6,285 437.6,513.5 607.2,669 84.8,78 157.5,137.3 209.9,175.9 6.9,5 12.4,8.8 18.7,13.1 72.4,-20.7 147.9,-39.7 225.1,-55.7 -167.2,-389.9 -788.6,-1954.4 -823.5,-3796 -1.3,-66.4 -1.8,-133.4 -1.8,-200.8 -0.2,-225.2 6.7,-456.3 22,-691.6 -16.3,16.3 -34.1,38.9 -52.2,68.8 -71.9,115.5 -132.9,308.4 -171.8,468.6 -39.5,160.6 -59,288.2 -59.1,288.4 l -50.9,329.9 -117.3,-312.4 c -106.5,-270.7 -224.5,-309.1 -329,-312.9 -56.5,-0.3 -113,17.2 -156.7,36.9 -12.9,367.5 -107.2,726.7 -249.9,1053.4 z m 1416.1,3491.9 c 288.4,165.1 614,450.4 905.6,722.3 374.8,352.9 674.6,681.9 675.9,683.2 l 17,18.7 7.7,23.7 c 0.1,0.6 78.5,241.8 207.2,620.3 193,567.6 498.5,1442.2 818.8,2264 319,820.4 658.2,1594.3 899.5,1937.2 l 111,158.4 -677.2,84.7 c 126.9,94.3 291.1,218.5 458.2,351 177.4,140.9 358.2,290.7 503,426.3 145.4,140 253.6,246.4 299.4,368.2 l 46.1,138.2 -830.1,83 c 552.2,415.3 2080.5,1420.2 3845.3,1417.7 881.9,-0.6 1823.5,-246.9 2750.6,-941.4 -422.4,-82.9 -776.9,-277.8 -1072.1,-546.2 -279.4,647.6 -1150.2,1028.3 -2040.5,1030.7 -633.3,-0.2 -1288.6,-196 -1764.1,-655.4 -856.9,-831 -1229.9,-2206.1 -1231.2,-3354.6 0.3,-512.9 74.8,-981.2 221,-1341.1 115.1,-280.9 343.8,-559.9 608.6,-781.3 160.1,-133 332.7,-244.6 504.8,-320 -11.9,-0.4 -23.6,-1.3 -35.6,-1.4 -196.4,-0.3 -914.8,3.8 -914.8,3.8 8.2,-2.9 443.6,-234.7 914.8,-236.5 1.3,-0.1 2.6,-0.1 3.9,-0.1 208.6,0 432.1,50.4 614.3,200.1 -39.2,-142 -64.4,-294.3 -71.9,-456.3 v 0 c -0.4,-6.7 -0.3,-10.9 -0.3,-14.2 1.5,-146.9 84.6,-779.2 629,-1425.1 544.2,-643.5 1549.3,-1274.9 3352.2,-1390.1 0,0 -854.5,845.4 -853.7,1786.1 0,391.9 107,870.1 408.8,1444.7 2.6,4.2 7.9,12.1 16.1,23.9 45.3,68 175.5,236.3 360,385.8 -113,-242.3 -220.8,-594.8 -220.8,-1056.4 0,-340.9 58.9,-740.2 216.1,-1195.7 301.5,-876.4 1018.4,-1631.1 1973.8,-1678.2 -68.1,-223.8 -207.6,-357.2 -390.7,-450.8 -216.4,-108.6 -495.9,-144.4 -747.3,-143.8 -175.8,0 -337.7,16.5 -454.6,33.3 -117.1,16.7 -186.6,33 -186.9,32.8 l -345.8,79.3 231.6,-269 c 0.1,0 22.2,-25.5 57.3,-71.3 52.9,-68.8 132.6,-180.5 197.2,-301.2 65.3,-120.1 111.9,-250.7 110.6,-342 -5.2,-88.2 -20.6,-130.3 -120.5,-180.2 -41.3,-18.2 -93,-28.2 -154.5,-28.2 -240.9,-3.1 -607.8,163.8 -899.1,337.8 -146.5,86.5 -276.2,173.3 -368.8,238.4 -92.9,65 -147.2,107.3 -147.4,107.3 l -202.5,156.7 14.9,-255.5 c 0,-0.2 4.5,-77.1 4.5,-193.5 0.1,-145.3 -7.5,-350.5 -39.1,-526.9 -27.5,-178.4 -96.7,-319.2 -142,-337.6 -4.2,-2.1 -4.6,-2.1 -9.6,-2.4 -14.6,-4.6 -89.2,30 -166.1,110 -117.5,116.6 -247.4,306.3 -343.7,464.2 -96.8,158.4 -161,283.9 -161.4,284.1 l -141.4,275.2 -75.1,-300.1 c 0,-0.4 -42.7,-170.4 -117.8,-399.5 -74.8,-228.9 -182.8,-515.1 -307.5,-736.2 -10,-17.9 -17.6,-24 -19.5,-25.2 -1.5,-0.4 0,-0.6 -1.5,-0.4 -8.6,-7.4 -103.5,42.5 -195.4,151.8 -142.4,159.1 -301.9,412.8 -422.1,623.7 -120.8,211.3 -203.2,379.5 -203.5,379.8 l -86.3,175.6 -113.1,-159.5 c 0,0 -5.9,-8.5 -19,-25.6 -45.8,-60 -170.2,-214.8 -329.6,-350.1 -159.3,-137.1 -352.6,-246.6 -516.6,-244.6 -61,0.2 -119.2,13.1 -179.2,44.5 -94.2,50.1 -152.3,127.2 -192.1,231 -39.1,103.1 -54.2,229.9 -54.1,353.9 0,122.3 14.2,241.6 28.5,333.6 7.4,45.9 14.6,85.1 20.3,115.3 5.4,33.8 9.7,43.2 11.2,78.9 -0.3,6.4 0.6,13.6 -4.5,33.7 -3.3,9.9 -7.4,24.8 -24.2,45 -15.4,20.4 -54.3,42 -88.6,40.5 -51,-2.5 -68.6,-23 -79.1,-30.6 -29.1,-30.6 -23.9,-32.5 -30.4,-41.9 -3.6,-7.5 -6.8,-14.5 -10.5,-22.9 0.5,-0.4 -7,-12.9 -30.6,-31.1 -83,-68.5 -314.3,-162.7 -601.2,-253 -288.3,-92.1 -637.5,-188.4 -982.7,-290.6 -36.2,-10.8 -64.1,-14.6 -83.3,-14.4 -38.2,2.7 -34.1,5.7 -43.6,15.6 -9.1,11.3 -22,50.1 -21.3,111 -2.5,200.4 124.8,574.3 256,880.8 65.3,154.4 130.9,294.7 180,396 49.1,101.3 81.3,162.9 81.4,163.1 l 156.4,299.5 -307.7,-139.5 c -0.7,-0.4 -367.7,-166.6 -793.4,-332.9 -421.6,-166.7 -918.5,-330.7 -1110.2,-327.2 -7.5,0 -14.5,0.2 -20.6,0.6 -6.3,0.4 -10.4,1.3 -12.9,1.9 -1.3,4.3 -3.6,14.4 -3.6,30.1 -0.9,52.8 26.7,155.7 74.3,267.3 70.9,168.9 181,363.6 273,513.9 92.1,150.5 165.1,255.9 165.2,256.3 l 181.1,262.1 -307.5,-83.4 c -83.7,-23 -176.9,-33.4 -275,-33.4 -210.1,-0.3 -441,48.2 -645.4,109.6 v 24.7 c -22.9,-1.7 -38.3,-4.8 -50.4,-8.8 -47.8,15.2 -94.6,30.6 -138.3,46.4 -66.5,23.9 -127.7,47.9 -181.1,70 z m 5753,2583.4 c -44.8,-50.9 -99.1,-86.7 -155.2,-116 -216.7,31.8 -488.1,174.6 -726.3,374.3 -247.2,205.6 -460,470.1 -558.6,713.2 -134.5,329.6 -208.3,779.5 -208,1275.1 -1.2,1112.1 370.5,2451.5 1177.8,3229 433.9,420.3 1044.2,606.3 1642.7,606.1 879.5,2.5 1708.3,-406 1906.5,-987 -283.5,-297.6 -506.4,-666.1 -676.4,-1064.4 -400.6,-933.6 -536.3,-2045.5 -536.7,-2892.2 0,-112.3 2.5,-220.1 7,-322.2 -148,61.5 -301.6,91.3 -453.4,91.3 -366.6,-0.5 -716.8,-171.7 -975.2,-470.1 22.6,124.5 34.6,264.1 34.5,420.4 0,20.9 -0.2,42.2 -0.6,63.7 0,0 -232.7,-642.6 -478.1,-921.2 z m 4687.7,5552.8 c 300,-65 1060.1,-271.5 1735.1,-772.8 675.3,-503.7 1266.8,-1286.2 1268.6,-2544.1 0.1,-916.4 -319.3,-2092.1 -1176.8,-3588.7 -90.3,153.8 -233.4,394.3 -397.7,657.2 -177.5,283.2 -815.7,1164.9 -877,1229.3 -386.4,406.3 -826.2,567.7 -1253.9,566.4 -637.9,-1.7 -1241.9,-339.1 -1708.2,-675.2 -233.1,-168.6 -431.8,-338.6 -580.4,-469.9 -74.4,-65.5 -136.3,-121.4 -182.5,-161.8 -23.1,-20.1 -42.5,-36.4 -56.2,-47.3 -7,-5.5 -12.5,-9.4 -15.8,-11.7 l 0.2,-0.2 -75.3,-34.8 8.8,-82.9 c 1,-8.6 64,-609.7 404.3,-1298.7 258.6,-524.4 1004.7,-1237.8 1686.3,-1629.7 -1206.2,224.9 -2226.8,852.8 -2638.4,1337.2 -502.1,588.5 -575.4,1190.8 -573.9,1274.5 h -0.3 l 0.1,0.6 0.3,2.3 c 43.7,862.4 605.3,1372.6 1164.4,1371.9 174.8,-0.2 351.7,-48.6 520.3,-154.6 l 196.8,-124 -18.7,231.9 c -12.1,152.6 -19.2,324.7 -19,510.4 -0.6,821.7 135,1911.3 517.7,2800.2 384.2,887.9 992.7,1560.2 1952.9,1638 19,-3.2 58.8,-10.5 118.3,-23.5 z m -75,-4921.5 c -387.1,-1 -699.5,-205.9 -913.6,-400.9 -214.9,-196.2 -336.5,-388.8 -340,-394.2 l -2.8,-4.1 -1.9,-4 c -317.7,-603.3 -410.4,-1122.3 -437.9,-1557.6 -51,-806.2 523.6,-1279.8 744.8,-1563.2 -686.6,363.3 -1413.7,1193.7 -1671.6,1713.7 -160.8,325.1 -256.9,632.1 -312,856.7 -27.7,112.4 -45.1,204.2 -55.6,267.3 -1.8,10.8 -3.5,20.5 -4.8,29.6 14.9,12.4 30.8,26.5 50.4,43 333.8,296.8 1348.5,1256.2 2318.3,1249.5 271.3,-0.9 539.5,-70.2 801,-250.1 -59,9.7 -117.3,14.3 -174.3,14.3 z M 30219,20646.7 c 0,-193.1 -7.2,-389.7 -21.7,-590 -5.2,-32.3 -40.8,-245.4 -104.9,-557.8 -26.3,-128.2 -57.6,-273.1 -93.2,-428.3 l -3.8,3.5 c -149.3,-156.1 -301.1,-206.6 -462.5,-208 -225.7,-1.3 -471,115.5 -656,238.8 -92.5,61.1 -368.9,258.1 -368.9,258.1 0,0 0.1,0 2.1,-2.9 15.5,-20.8 89.3,-139.7 87.8,-269.8 -3.9,-141 -175.4,-490.8 -581.7,-668.2 -127.6,-53.5 -249.6,-75.5 -366.8,-75.6 -301.5,-0.9 -580.3,150.5 -783.4,309 -61.2,47.6 -114.2,94.8 -159.9,138.3 -10.1,16.6 -1365.9,1180.9 -1500.2,2070.1 135.5,-94.1 312.6,-150.1 493.5,-151.6 h 1.2 c 171.3,0 349.7,54.4 484.1,189.8 113.9,114.6 190.5,282.7 211.3,505.9 23,-38.1 47.8,-77.4 74.4,-116.9 158.3,-229 367.2,-480.4 650,-487.7 93.4,-0.3 189.4,33.3 276.6,101.5 368.1,289.7 492.5,700 535,951.4 79.7,-95.2 191,-218.8 325.4,-343.1 279.8,-256.7 658.8,-523.9 1078.3,-526 59.3,0 119,5.5 179.1,17.5 173.6,35.2 294.3,166.8 378.3,324.6 106,201.1 167.3,461 203.3,704.3 78.5,-439.8 122.8,-902.4 122.6,-1386.9 z m -654.8,-3074 c -121.5,-324.8 -259.3,-619.9 -406.8,-835.2 -147.2,-217.3 -302.6,-343.9 -436.8,-365.2 -25.7,-4.5 -51.5,-6.6 -77.7,-6.7 -189.2,-2.1 -409.9,125.2 -628.7,342.9 -328.2,324.2 -641.5,830.4 -878.6,1264.4 -66.6,121.5 -127.1,237.1 -181.2,342 195.2,-111.8 430.5,-198.4 695,-201.4 146.7,0 301.2,28.3 457.3,94 457.7,187.6 616.3,474.9 612.3,714.9 0,2.8 0,5.5 -0.1,8.2 9.7,-6.6 19.4,-13.2 29.5,-19.9 205.3,-134.8 482,-276.2 784.5,-277.5 126.9,-0.8 258,28.1 382.9,92.1 -95.3,-376.1 -213.1,-783.3 -351.6,-1152.6 z m -2070.1,-1748.7 -13.8,1.8 c -0.2,-0.5 -21.5,-169.5 -65.5,-427.6 -65.7,-386.9 -182.2,-971.1 -348.3,-1462.2 -82.6,-245.3 -178.4,-467.2 -281.3,-625.9 -102.9,-160.6 -210.4,-245.5 -294.5,-256.5 -0.9,0 -1,0.1 -1,0 -0.1,0.1 -0.1,0.1 -0.3,0 -0.1,-0.1 -0.7,-0.1 -2.8,1.6 -21.1,4.9 -87.4,115.3 -123.6,273.4 -60.7,236.4 -93.4,569.6 -109.3,839.7 -13,215.9 -15.7,391.3 -16.5,453.6 123.8,277.5 510.9,824.6 866.2,1292.5 169.4,223.6 331.6,430.7 457.1,589 -16.5,-175.1 -38.8,-404.8 -66.4,-679.4 z m -1394,-2752.4 c 0,0.1 -8,55.6 -16.2,152 -8.4,96.7 -16.8,232.4 -16.7,387.3 0,12.6 0.4,26.1 0.6,39 22.9,-173.5 54,-341.8 98.8,-481.3 28.5,-87.4 61.5,-164.2 108.9,-228 45.4,-62.1 119.3,-120 214.2,-119.9 13.1,0 24.9,1.2 35,2.5 259,47.7 425.3,278.2 569.4,561.6 68.1,138 130.1,293.8 186.3,458 -45.5,-394.9 -95.3,-812.8 -149.4,-1244.4 -412,-53.1 -809,-254.9 -1001.2,-364.1 -79.8,207.4 -122.9,378.8 -146.2,502.5 -13.8,73.8 -20.7,130.7 -23.9,168.4 -0.5,6 -0.8,10.7 -1.3,15.8 43.1,15.7 68.2,25.6 69.4,25.9 l 85.4,33.9 z m -1957.8,82.2 c 22.7,-161 113.4,-285.8 232.2,-358.6 3.8,-15.3 7.6,-32.4 11.5,-50.7 -48.3,-32.5 -119.3,-59.5 -236.1,-60.4 -51.3,-0.1 -110.9,5.5 -180.2,19.3 -42.7,6.1 -104.6,59.8 -159.5,181.7 -168.1,361 -197.8,1146.8 -195.7,1497.2 0,35.2 0.3,65.6 0.5,91.4 195,45.4 394.1,133.5 592.5,249.9 -43.8,-259.5 -99,-666.9 -99.2,-1073.6 0,-168.3 9.6,-337 34,-496.2 z M 22480,12715.9 c 2.4,12.6 4.8,25.9 7.2,37.6 6.9,33.4 13.9,62.9 20,86.5 98.4,66.5 194.4,150.4 285.3,255 l 26.4,30.3 2.1,40.3 c 28.9,550.7 67.6,955.7 98.7,1222.5 6.6,55.8 12.7,104.1 18.5,147.8 151.9,-53.6 297.1,-85.6 434.5,-89.6 -12.4,-127.6 -34.9,-335.2 -70,-568.4 -56.5,-382.5 -150.9,-835.4 -275,-1081.3 -91,-171.4 -169.2,-195 -254.2,-199 -74.8,-0.8 -163.4,35.4 -230.5,76.4 -24.3,14.5 -45.7,29.1 -63,41.9 z m 293.5,-351.2 c 3,0 6.3,0 9.4,0 165.1,-0.1 345.4,103.2 453,327.7 89.7,181 158,421.6 211.3,670.9 2.2,-14.8 4.4,-29.6 6.9,-44.4 31.7,-195.1 75.8,-379.6 144,-530.3 67.7,-147.3 164.3,-278.5 325.9,-313.6 82.7,-16.4 157.7,-23.8 225.9,-23.8 107.1,-0.8 197.4,19.4 272.2,50.6 2.4,-32.5 4.3,-65.1 4.2,-97.4 0.7,-105.1 -16.6,-202.3 -50.4,-267.5 -290.6,-34.2 -509.6,-142 -655,-299.9 -130.8,-141.7 -197,-317.9 -214.5,-498.8 -31.6,-3.8 -58.6,-5.5 -80.3,-5.5 -23.9,0 -41.5,1.7 -54.7,3.5 -14.3,188.6 -80.9,373 -216.8,520.2 -145.4,158 -364.4,265.9 -655,299.9 -33.8,65.2 -51.1,162.3 -50.4,267.4 0,11.4 0.8,22.9 1.2,34.2 85,-47.1 196.1,-90.3 323.1,-93.2 z m -515.1,-3152.5 c -154.5,273.5 -448.2,1069.2 -445.9,1539.4 0.2,175.4 35.5,334.4 119.3,468 1.9,0.9 4,1.9 6.3,3.1 60.1,30.3 207.5,90.8 349.6,89.9 95.5,-0.5 183.6,-23.4 262.7,-91.9 56.4,-45.8 102.7,-170.3 101.5,-357.3 1.3,-363 -136.6,-1150.2 -393.5,-1651.2 z m 518.7,977.7 6,-10.2 c 311.2,187.3 529.8,549.4 580,923.2 18.4,-1.8 38.5,-3 61.3,-3 h 1.7 c 25.2,0 53.2,1.3 83.9,4.3 44.7,-380.9 265.2,-753.4 582.4,-944 l 5.9,9.9 c 43.5,-155 99.5,-315.3 165.3,-475.5 -304.5,-9.9 -606.1,-16 -901.9,-15.9 -257.4,0 -510.2,4.2 -759.8,10.9 70.2,168.6 129.5,337.1 175.2,500.3 z m 5067.2,1959.1 c 217.6,-278.9 344.3,-609.7 343.4,-891.2 -1.3,-148.9 -34.4,-280.7 -104.3,-393 18.8,153.7 25.1,290.3 25.2,401 -0.1,191.2 -17.8,307.8 -18.4,312.5 l -0.9,5.4 -1.5,6 c -51.8,200.2 -129.2,347.3 -232.2,447.8 -102.3,101 -231.8,147.7 -356.2,146.8 -222,-2.2 -423.8,-126.5 -579,-279.6 -152.9,-156.1 -266.4,-340.2 -270.2,-528.5 -2.2,-95.7 42.1,-202.4 134.6,-261.8 141.2,-88 278.1,-344.5 379.3,-623.3 -47,-4.1 -91.6,-6.1 -134.2,-6.1 -392.9,1.9 -599.7,160.1 -726.3,318.5 -62.4,79.6 -102,160.3 -125.5,220.2 -11.8,29.9 -19.4,54.7 -23.9,71.3 -2.3,8.3 -4,14.5 -4.8,18.3 -1,3.7 -0.9,3.8 -1,3.8 l -4.5,-0.8 c 7.5,41.8 11.3,83.3 11.3,123.7 -2,290.7 -169.8,526.8 -325.1,693 -157,166.2 -309.9,265.4 -314.7,268.7 0,0 624.8,-641.1 371.8,-1141.3 -108.1,-213.7 -172.7,-378 -289.2,-488 -83.6,-78.8 -188.5,-140.3 -337.8,-187.2 21.7,114.9 35,231.4 35.7,346.9 0,217.8 -47.2,435.8 -174.9,622.5 l -14.9,21.9 -22.5,13.1 c -8.9,3.6 -225.8,134.6 -495.8,136.6 -134.6,0.5 -287.8,-36.8 -416.1,-149.7 -138.3,-124.6 -179.9,-315.8 -181,-532.5 0.4,-101.1 10.9,-210.8 29.7,-325.9 -171.7,189.4 -288.5,467.8 -286.3,719.1 0.3,170.7 49.6,324.2 158,441.9 108.8,117.5 283,207.7 560.1,231.3 l 50.7,4.2 31.3,40 c 101.4,131.8 124.1,296.1 124.9,449.8 -0.2,91.7 -9.3,181.3 -21.7,261.1 8.4,11.1 16,22 22.9,32.6 60.5,-8.5 123,-12.3 186.3,-12.5 308.2,1.1 649.1,86.5 885.3,159.4 17,-150.6 69.9,-442.6 234,-825.7 l 54.4,-126.8 116,74.8 c 0.1,0.2 37.9,24.8 106.9,63.8 205.4,117.8 681.1,350.1 1074.7,347.8 215.6,-1.5 393.9,-61 526.4,-229.9 z m 2741.2,-224.2 c -30.2,111.6 -71,213.1 -136.4,295.2 -63.6,82.1 -165.6,143.8 -282.1,142.5 -71.3,0 -143.7,-20.4 -217.1,-57.3 -135.2,-69.8 -578.6,-181.5 -969.2,-265.5 -319.6,-69.7 -612.1,-125.7 -710.8,-144.4 -63.6,137.8 -144.9,271.9 -241.7,396.8 -171.6,221.9 -417.6,310 -660.7,319 225.3,1805.1 378,3367.5 435.4,3980.5 48.6,-50.7 98.1,-98.7 148.6,-143 211,-184.8 441,-314.9 691.4,-316.1 39.1,0 78.7,3.4 118.1,10.3 315.9,61.9 544.1,353.3 745.8,725 596,1121.2 918.8,3149.9 921.1,3155.9 l 0.8,5.3 0.4,4.7 c 15.2,208 22.7,412.3 22.7,613 -4.2,4055.1 -2989.1,6600.9 -3491.2,7002.3 13.6,47.4 24.6,96.9 32.2,149.2 l 20.6,137.8 -139.2,-4.1 c -17.1,-0.5 -34.3,-0.7 -51.2,-0.8 -868,-2.3 -1553.6,683 -1844.1,1523.5 -149.3,433.3 -203.5,805.8 -203.5,1119.9 0,439.4 105.7,765.1 209.8,980.7 52,107.7 103.7,187.9 141.6,240 19,26.3 34.5,45.4 44.9,57.7 4.8,5.8 8.4,10 10.8,12.5 82.9,25.8 169.6,40.3 259.3,39 194.8,-0.7 413.3,-66.3 656.6,-259.8 204.6,-264.5 445.2,-629.3 649.9,-957.7 277.4,-443.3 493.3,-822.4 493.9,-823.2 l 99.4,-174.4 102,172.9 c 947,1602.6 1309.5,2871.4 1309.7,3879.7 2.1,1528.2 -842.8,2436.2 -1672.9,2940 -737.1,449.5 -1466.5,598.2 -1627.5,627.2 -1028.1,843.6 -2100.5,1144 -3089.4,1143.3 -2338.1,-3.8 -4208.7,-1644.6 -4218.7,-1650.1 l -202.9,-176.9 1040.6,-104.1 c -38.2,-42.4 -85.6,-90.6 -138.7,-138.9 -205.8,-192.5 -501,-427 -743.2,-611.6 -242.5,-184.8 -431.8,-319.9 -432.2,-320.3 l -242.8,-173.3 889.4,-111.2 c -342.1,-575 -771.4,-1662.4 -1137.2,-2657.1 -364.2,-993.5 -658,-1886 -709,-2042.2 -28.2,-30.4 -90.4,-97.2 -176.7,-186.8 -180.1,-186.8 -464.1,-471.5 -755,-723.6 -288.4,-252.2 -594,-471.2 -775,-523 l -276.4,-82.9 256.6,-132.1 c 3.9,-1 170.4,-87.7 413.8,-176.9 -65.6,-55.2 -140.8,-123 -224.8,-204.7 -499.8,-490.2 -1264.6,-1443.7 -1462.5,-2635.9 -52.9,89.5 -108.7,175.5 -166.9,256.6 -171.4,238.3 -362.5,437.3 -555,580 -192.9,141.7 -386.8,231.2 -576.8,232.5 -149.3,2.1 -296.8,-66.6 -390,-199.3 -12.8,-17.9 -25.9,-35.1 -38.7,-52.6 -241.8,1479.7 -536,2403.5 -832.3,2972.8 -316.8,609.5 -650.2,828.6 -941.84,830.6 -50.27,0 -97.8,-6.9 -141.85,-18.9 -67.78,-18.6 -113.98,-68 -142.6,-117.3 -82.65,-149.3 -96.97,-365.2 -99.69,-644 0.47,-743 172.34,-1892.3 261.4,-2439 -26.56,31.1 -53.28,62.2 -80.2,93 -407.77,466.1 -834.15,884.1 -1080.58,1069.6 -192.77,144.4 -405.49,213.5 -599.19,213.8 -146.85,-0.3 -285.22,-40 -391.58,-125.5 -106.73,-84.3 -174.14,-218.9 -172.91,-371.5 0,-32.8 2.83,-66.6 8.57,-101 29.35,-157.5 150.89,-382.3 320.21,-673.1 470.45,-797.3 1311.75,-1980.9 1431.86,-2149.4 -166.23,-183.9 -292.65,-491.1 -398.62,-773.9 -113.24,-310.2 -186.02,-583.4 -186.66,-585.4 l -6.4,-24.5 4.14,-24.8 c 11.77,-51.4 25.04,-66.2 47.82,-110.2 164.52,-289.3 828.86,-1246.9 1633.62,-2190.3 402.1,-471 837.9,-936.4 1263.5,-1309.2 426.5,-372.4 838.8,-654.7 1216.7,-753.6 342.1,-88.3 677.4,-140.5 998.7,-140.5 5.9,-0.1 12.1,-0.1 18,-0.1 748.4,0 1424.8,309.7 1863.4,1079.4 774.3,-1616.5 2129.9,-3181.8 4388.4,-4370.6 0.6,-511.5 17.7,-1223.4 50.7,-2039.7 l -23.4,-9.1 c 0.5,-0.8 9.8,-24.9 26.5,-64.5 17.6,-427.7 39.6,-882.6 65.7,-1351.3 -209.1,77.5 -449.2,139.8 -685,141.4 -259,1.6 -527.4,-82.6 -710.4,-319.8 -83.4,-107.6 -155.4,-222 -214.3,-339.7 -488.1,42 -1143.6,200.5 -1687,351.4 -280.1,77.5 -530.8,152.9 -716.2,209 -92.8,28.1 -169.1,51.2 -225.3,67.8 -28.1,8.2 -51.3,14.7 -69.5,19.6 -22.1,4.7 -24.6,8.5 -60.9,10.4 -5.9,-0.4 -12.7,0.8 -33.6,-4.7 -10.3,-3.2 -26.2,-7.9 -46.8,-25.8 -14.4,-11.9 -28,-34.4 -34.4,-57.3 -42.1,-100.5 -261.7,-638.3 -263.1,-1170 0.1,-200.8 31.8,-403.5 125.7,-581.9 93,-178.6 253.6,-328.1 484.5,-407.1 369.9,-127.7 1474.3,-411.6 3040.2,-635.3 37,-69.7 76.9,-139.7 121.3,-209.9 l 168,-264.7 45.6,310.3 c 0,0 6.4,43.2 19.5,116.2 302.6,-39.4 620.1,-76 950.5,-108.6 102.1,-1120.1 226.4,-2158.7 372.9,-2929.6 75.9,-398.9 157.2,-725.8 247.7,-961.6 45.8,-117.9 93,-213.5 149.7,-287.4 55.4,-72 130.7,-134.5 233.5,-135.9 7.3,0.1 15.6,0.4 25,1.4 96.8,11.1 178.1,58.1 246.5,124.1 32.4,-384.1 97.6,-1052.6 204.4,-1750.7 82.5,-538.2 189.4,-1093.3 327.1,-1552.5 141.4,-458.9 296.6,-823.1 542.2,-994.1 38.4,-25.6 85.5,-42.7 134.5,-42.7 h 1.1 c 102.2,1.8 176.3,61.8 235.6,131.6 111.3,134.7 204,347.9 300.1,631 330.8,986.5 648.3,2818.4 886.6,4412.1 17.4,116.6 34.3,231.9 50.8,345.5 9.9,-487.3 43.9,-960.7 121.3,-1341 47.9,-232.5 110.6,-430.6 202.7,-582 89.2,-149.2 227.4,-263.2 403.1,-262.6 108.2,0.3 216.6,41.3 326.1,114 175.3,120.3 311,345.6 447.5,656.6 401.7,929.9 753.8,2662.4 1049,4524.7 133.5,19 267.5,39.4 401.5,60.8 22.8,-116.1 33.3,-188.6 33.5,-188.8 l 45.5,-310.4 168.1,264.9 c 60.2,95.2 112.6,190.2 159.6,284.8 l 4.7,-26.5 v 0.1 c 918.2,167 1875.6,447.5 2781.9,751.5 l 71,23.8 7.7,74.3 c 0.3,2.5 27.3,257.5 27.4,568.5 -0.3,237.8 -15,506.8 -74.4,729.8 z m -10584,8437.9 c 6.8,-0.5 13.4,-0.6 20,-0.6 161.7,1.4 274.2,117.7 351.1,253.2 136.4,243 206.8,604.7 241.9,861.3 30.4,-54.9 65.6,-113.7 105,-173 152.1,-224.1 365.6,-470.6 660.7,-476 9.8,0 19.6,0.4 29,0.8 260.2,11.7 420.8,155.7 497.2,339.3 79.8,182.2 -4.5,671.7 -4.5,671.7 -59.1,-238.5 -89.6,-455.3 -155.2,-600.7 -69.3,-144.1 -141.6,-218.3 -347.9,-235.9 -6.1,-0.4 -12.6,-0.6 -18.6,-0.6 -179.6,-5.3 -376.2,185.2 -515.4,398.3 -69.8,104.6 -126.3,210.8 -164.9,290.2 -38.4,79.3 -58.3,130.5 -58.6,130.5 0,0 -255,-694.6 -332.8,-919.4 -38.7,-112.1 -86.2,-210.5 -137.4,-274.3 -52.5,-64.9 -99.4,-90.5 -149.6,-90.7 -3.1,0 -6.2,0.1 -9.4,0.2 -78.7,2.4 -182.3,78 -280.7,214.1 -148.2,201.3 -279.5,512.6 -370,770.7 -91.3,258.6 -143,463 -143.3,463.4 l -57.7,227.5 -105,-209.9 c 0,-0.2 -26.4,-52.8 -72.7,-133.8 -69.7,-121.6 -183.6,-304.5 -311.6,-452.8 -127,-150.8 -272.4,-254.1 -364.8,-249.5 -29.8,0.4 -56.2,7.2 -86.2,26.3 -344.9,215.9 -407.8,713.4 -405.8,988.7 0,110.2 8.7,178.6 8.4,178.9 0,0 -132,-1029.3 302.8,-1314.6 56.2,-36.5 119.3,-54.4 180.8,-54.1 130.8,1.3 245.3,70.6 348.8,159.7 187.3,163.8 351.7,413.4 452.4,584.4 43.7,-143.9 110.5,-346.4 195.9,-551.2 79.9,-191.1 175.3,-384.2 287.2,-537.1 111.7,-150.5 241.5,-271.9 410.9,-285 z m 5401,15255.5 v 0 c -0.1,0 -0.1,0 -0.1,0 z m 53.2,1.6 c 105,0.5 345.6,-16.2 555.3,-127.2 209.2,-113.5 393.2,-301.3 430.4,-700 l 232.1,20 c -37.8,471.3 -288.9,750.2 -554.2,886.2 -264.6,138.2 -716.8,-80.6 -716.8,-80.6 1.5,0.2 18.6,1.6 53.2,1.6 z m -4220.3,-1009.7 c -25.7,-34.6 -55,-50 -83.4,-50 -28.4,0 -57.8,15.4 -83.4,50 -25.2,34.3 -42.9,85.8 -42.8,144 -0.1,58.2 17.6,109.9 42.8,144.1 25.6,34.6 55,50 83.4,50 28.4,0 57.7,-15.4 83.4,-50 25.2,-34.2 42.8,-85.9 42.7,-144.1 0.1,-58.2 -17.5,-109.7 -42.7,-144 z m -162.3,-617.4 v -16.8 c -1.7,-125.8 -24.3,-239.3 -56.5,-316.4 -32.2,-80.2 -74.4,-107.6 -84,-103.8 -0.1,0 -0.1,0 -0.4,0 -0.2,0 -0.6,0 -1.3,0 -0.5,0 -1.5,0 -2.6,-0.1 -14,3 -48.2,31.2 -74.6,100.3 -30,74.5 -50,184.7 -49.8,307 -0.1,5.9 0,11.3 0.1,16 1.6,126.6 24.1,240 56.4,317.2 28.7,71.6 65.2,101 79.7,104 l 3.2,-0.2 c 0.2,0 0.3,0 0.5,0 h 0.9 c 9.3,3.5 48.9,-22.5 78.6,-100.2 30.1,-74.4 49.8,-184.7 49.8,-307 z m -979.1,408.9 c 0,0.3 -7.2,95.8 -7.2,254.8 -0.4,344.1 35.2,977.5 247.5,1512.8 216.4,536.9 583.4,962 1278.7,964.5 25.7,0 51.7,-0.6 78.2,-1.8 550.3,-27.5 821.1,-342.7 975.8,-696.9 151.5,-353.3 164.7,-738 164.1,-843.9 0.1,-19.4 -0.2,-28.8 -0.2,-28.8 0,0 163.3,550.2 -3.2,941.4 -163.3,390.3 -504.2,776.6 -1128.3,802.6 -29.2,1.4 -58,2.2 -86.4,2.1 -779.7,2.3 -1222.9,-503.5 -1441.1,-1075 -320.2,-838.8 -77.9,-1831.8 -77.9,-1831.8 z m 1414.2,-1105.7 c 119.7,209.9 202.3,492 226.7,807.3 l -87.1,6.7 87.1,-6.5 c 4.8,61.7 7,122.5 7.1,182.4 -0.2,281.8 -50.6,535.9 -141.6,729.6 -90.3,191.3 -227.9,335.4 -413.3,351.3 -9.5,0.8 -19.2,1.1 -28.1,1.1 -199.5,-2.6 -360.4,-151.3 -479.7,-358.7 -119.8,-210 -202.2,-492 -226.7,-807.4 -4.7,-61.8 -7,-122.7 -7,-182.6 0.2,-281.8 50.6,-535.9 141.8,-729.6 51.4,-109.2 118.9,-202.1 201.4,-265.4 -172.5,-52.5 -321.2,-114.7 -445.4,-176.9 -2.3,28.6 -4.9,61.3 -7.4,98.2 -9.8,144.4 -19.7,347.6 -19.7,581.7 -0.4,486.1 43.6,1106 214,1603.5 174,500.8 455.9,858.8 938.7,895.1 13.4,0.8 26.2,1.5 38.4,1.5 200.8,-2.3 319.1,-115.1 410.7,-336.7 87.5,-219.9 121.8,-534.6 121.3,-866.6 0.1,-405.2 -48.9,-836.6 -98.2,-1165.6 -34.7,-232.1 -69.2,-412 -86.6,-498.3 -33.8,0.8 -68.3,2.5 -101.3,2.5 -122.3,0 -238.2,-6.2 -348.5,-17.1 37.2,45.1 71.8,95.7 103.4,150.5 z m 827.8,-414.7 c 0,0 -267.5,267.2 -304.9,270 48.5,245.5 182.9,985.7 183.1,1672.7 -0.3,343.8 -32.8,674.1 -133.5,930.7 -96.6,254.9 -288,449.6 -573.3,447.2 -17,0 -34,-0.7 -51.3,-1.9 -578.4,-42.5 -913.3,-485.8 -1091,-1012.7 -181,-530 -223.3,-1163.4 -223.5,-1660.1 0,-363.9 23.3,-653.2 34.6,-771.9 -201.2,-121.1 -304.9,-223.2 -309.9,-228.4 0,0 797.1,402.8 1887,402.8 116.4,0 454.2,-35.5 582.7,-48.4"
         style="fill:#100f0d;fill-opacity:1;fill-rule:nonzero;stroke:none"
         id="path196" />
    </g>
  </g>
</svg>
